# MagicaVoxel @ Ephtracy

# group
o 

# material
mtllib Voxel RPG Weapons-1.mtl
usemtl palette

# normals
vn -1 0 0
vn 1 0 0
vn 0 0 1
vn 0 0 -1
vn 0 -1 0
vn 0 1 0

# texcoords
vt 0.146484 0.5
vt 0.208984 0.5
vt 0.220703 0.5
vt 0.283203 0.5
vt 0.306641 0.5
vt 0.310547 0.5
vt 0.482422 0.5

# verts
v -2.9 1 0.6
v -2.9 1 0.3
v -2.9 1.1 0.6
v -2.9 1.1 0.5
v -2.9 1.1 0.3
v -2.9 1.2 0.5
v -2.9 1.2 0.3
v -2.9 1.3 0.6
v -2.9 1.3 0.5
v -2.9 1.3 0.4
v -2.9 1.3 0.3
v -2.9 1.4 0.6
v -2.9 1.4 0.5
v -2.9 1.4 0.4
v -2.9 1.5 0.5
v -2.9 1.5 0.4
v -2.9 1.5 0.3
v -2.8 0.1 0.5
v -2.8 0.1 0.4
v -2.8 0.7 0.5
v -2.8 0.7 0.4
v -2.8 0.9 0.5
v -2.8 0.9 0.4
v -2.8 1 0.5
v -2.8 1 0.4
v -2.8 1.4 0.6
v -2.8 1.4 0.5
v -2.8 1.5 0.6
v -2.8 1.5 0.5
v -2.8 1.5 0.4
v -2.8 1.5 0.3
v -2.8 1.6 0.4
v -2.8 1.6 0.3
v -2.7 1.5 0.5
v -2.7 1.5 0.4
v -2.7 1.6 0.5
v -2.7 1.6 0.4
v -2.7 0.1 0.5
v -2.7 0.1 0.4
v -2.7 0.7 0.5
v -2.7 0.7 0.4
v -2.7 0.9 0.5
v -2.7 0.9 0.4
v -2.7 1 0.5
v -2.7 1 0.4
v -2.6 1 0.6
v -2.6 1 0.3
v -2.6 1.1 0.6
v -2.6 1.1 0.3
v -2.6 1.2 0.6
v -2.6 1.2 0.5
v -2.6 1.3 0.6
v -2.6 1.3 0.5
v -2.6 1.3 0.4
v -2.6 1.4 0.5
v -2.6 1.4 0.4
v -2.6 1.4 0.3
v -2.6 1.5 0.6
v -2.6 1.5 0.5
v -2.6 1.5 0.4
v -2.6 1.5 0.3
v -2.6 1.6 0.5
v -2.6 1.6 0.3
v -2.9 1 0.6
v -2.9 1.1 0.6
v -2.9 1.3 0.6
v -2.9 1.4 0.6
v -2.8 1.1 0.6
v -2.8 1.2 0.6
v -2.8 1.3 0.6
v -2.8 1.4 0.6
v -2.8 1.5 0.6
v -2.7 1.3 0.6
v -2.7 1.4 0.6
v -2.7 1.5 0.6
v -2.6 1 0.6
v -2.6 1.1 0.6
v -2.6 1.2 0.6
v -2.6 1.3 0.6
v -2.6 1.5 0.6
v -2.9 1.4 0.5
v -2.9 1.5 0.5
v -2.8 0.1 0.5
v -2.8 0.7 0.5
v -2.8 0.9 0.5
v -2.8 1 0.5
v -2.8 1.4 0.5
v -2.8 1.5 0.5
v -2.7 0.1 0.5
v -2.7 0.7 0.5
v -2.7 0.9 0.5
v -2.7 1 0.5
v -2.7 1.5 0.5
v -2.7 1.6 0.5
v -2.6 1.5 0.5
v -2.6 1.6 0.5
v -2.8 1.5 0.4
v -2.8 1.6 0.4
v -2.7 1.5 0.4
v -2.7 1.6 0.4
v -2.8 0.1 0.4
v -2.8 0.7 0.4
v -2.8 0.9 0.4
v -2.8 1 0.4
v -2.7 0.1 0.4
v -2.7 0.7 0.4
v -2.7 0.9 0.4
v -2.7 1 0.4
v -2.9 1 0.3
v -2.9 1.1 0.3
v -2.9 1.2 0.3
v -2.9 1.3 0.3
v -2.9 1.5 0.3
v -2.8 1.2 0.3
v -2.8 1.3 0.3
v -2.8 1.4 0.3
v -2.8 1.5 0.3
v -2.8 1.6 0.3
v -2.7 1.3 0.3
v -2.7 1.4 0.3
v -2.7 1.5 0.3
v -2.6 1 0.3
v -2.6 1.1 0.3
v -2.6 1.4 0.3
v -2.6 1.5 0.3
v -2.6 1.6 0.3
v -2.8 0.1 0.5
v -2.7 0.1 0.5
v -2.8 0.1 0.4
v -2.7 0.1 0.4
v -2.9 1 0.6
v -2.6 1 0.6
v -2.8 1 0.5
v -2.7 1 0.5
v -2.8 1 0.4
v -2.7 1 0.4
v -2.9 1 0.3
v -2.6 1 0.3
v -2.9 1.4 0.6
v -2.8 1.4 0.6
v -2.9 1.4 0.5
v -2.8 1.4 0.5
v -2.8 1.5 0.6
v -2.7 1.5 0.6
v -2.6 1.5 0.6
v -2.9 1.5 0.5
v -2.8 1.5 0.5
v -2.7 1.5 0.5
v -2.6 1.5 0.5
v -2.9 1.5 0.4
v -2.8 1.5 0.4
v -2.7 1.5 0.4
v -2.9 1.5 0.3
v -2.8 1.5 0.3
v -2.7 1.6 0.5
v -2.6 1.6 0.5
v -2.8 1.6 0.4
v -2.7 1.6 0.4
v -2.8 1.6 0.3
v -2.6 1.6 0.3

# faces
f 3/3/1 2/3/1 1/3/1
f 4/3/1 2/3/1 3/3/1
f 5/3/1 2/3/1 4/3/1
f 6/4/1 4/4/1 3/4/1
f 6/7/1 5/7/1 4/7/1
f 7/7/1 5/7/1 6/7/1
f 8/4/1 6/4/1 3/4/1
f 8/4/1 7/4/1 6/4/1
f 9/4/1 7/4/1 8/4/1
f 10/4/1 7/4/1 9/4/1
f 11/4/1 7/4/1 10/4/1
f 12/1/1 9/1/1 8/1/1
f 13/4/1 10/4/1 9/4/1
f 13/1/1 9/1/1 12/1/1
f 14/2/1 11/2/1 10/2/1
f 14/4/1 10/4/1 13/4/1
f 15/1/1 14/1/1 13/1/1
f 16/2/1 11/2/1 14/2/1
f 16/1/1 14/1/1 15/1/1
f 17/2/1 11/2/1 16/2/1
f 20/5/1 19/5/1 18/5/1
f 21/5/1 19/5/1 20/5/1
f 22/3/1 21/3/1 20/3/1
f 23/3/1 21/3/1 22/3/1
f 24/6/1 23/6/1 22/6/1
f 25/6/1 23/6/1 24/6/1
f 28/1/1 27/1/1 26/1/1
f 29/1/1 27/1/1 28/1/1
f 32/1/1 31/1/1 30/1/1
f 33/1/1 31/1/1 32/1/1
f 36/1/1 35/1/1 34/1/1
f 37/1/1 35/1/1 36/1/1
f 38/5/2 39/5/2 40/5/2
f 40/5/2 39/5/2 41/5/2
f 40/3/2 41/3/2 42/3/2
f 42/3/2 41/3/2 43/3/2
f 42/6/2 43/6/2 44/6/2
f 44/6/2 43/6/2 45/6/2
f 46/3/2 47/3/2 48/3/2
f 48/3/2 47/3/2 49/3/2
f 48/7/2 49/7/2 50/7/2
f 50/7/2 49/7/2 51/7/2
f 50/4/2 51/4/2 52/4/2
f 51/7/2 49/7/2 53/7/2
f 52/4/2 51/4/2 53/4/2
f 53/7/2 49/7/2 54/7/2
f 52/2/2 53/2/2 55/2/2
f 53/4/2 54/4/2 55/4/2
f 54/7/2 49/7/2 56/7/2
f 55/4/2 54/4/2 56/4/2
f 56/7/2 49/7/2 57/7/2
f 52/2/2 55/2/2 58/2/2
f 55/1/2 56/1/2 59/1/2
f 58/2/2 55/2/2 59/2/2
f 56/2/2 57/2/2 60/2/2
f 59/1/2 56/1/2 60/1/2
f 60/2/2 57/2/2 61/2/2
f 59/1/2 60/1/2 62/1/2
f 60/1/2 61/1/2 62/1/2
f 62/1/2 61/1/2 63/1/2
f 68/3/3 65/3/3 64/3/3
f 68/4/3 66/4/3 65/4/3
f 69/4/3 66/4/3 68/4/3
f 70/1/3 67/1/3 66/1/3
f 70/4/3 66/4/3 69/4/3
f 71/1/3 67/1/3 70/1/3
f 73/4/3 70/4/3 69/4/3
f 73/4/3 71/4/3 70/4/3
f 74/1/3 72/1/3 71/1/3
f 74/4/3 71/4/3 73/4/3
f 75/1/3 72/1/3 74/1/3
f 76/3/3 68/3/3 64/3/3
f 77/7/3 69/7/3 68/7/3
f 77/3/3 68/3/3 76/3/3
f 78/4/3 73/4/3 69/4/3
f 78/7/3 69/7/3 77/7/3
f 79/2/3 74/2/3 73/2/3
f 79/4/3 73/4/3 78/4/3
f 79/2/3 75/2/3 74/2/3
f 80/2/3 75/2/3 79/2/3
f 87/1/3 82/1/3 81/1/3
f 88/1/3 82/1/3 87/1/3
f 89/5/3 84/5/3 83/5/3
f 90/3/3 85/3/3 84/3/3
f 90/5/3 84/5/3 89/5/3
f 91/6/3 86/6/3 85/6/3
f 91/3/3 85/3/3 90/3/3
f 92/6/3 86/6/3 91/6/3
f 95/1/3 94/1/3 93/1/3
f 96/1/3 94/1/3 95/1/3
f 99/1/3 98/1/3 97/1/3
f 100/1/3 98/1/3 99/1/3
f 101/5/4 102/5/4 105/5/4
f 102/3/4 103/3/4 106/3/4
f 105/5/4 102/5/4 106/5/4
f 103/6/4 104/6/4 107/6/4
f 106/3/4 103/3/4 107/3/4
f 107/6/4 104/6/4 108/6/4
f 110/7/4 111/7/4 114/7/4
f 111/4/4 112/4/4 114/4/4
f 112/2/4 113/2/4 115/2/4
f 114/4/4 112/4/4 115/4/4
f 115/2/4 113/2/4 116/2/4
f 116/2/4 113/2/4 117/2/4
f 114/7/4 115/7/4 119/7/4
f 115/4/4 116/4/4 119/4/4
f 117/1/4 118/1/4 120/1/4
f 119/4/4 116/4/4 120/4/4
f 116/1/4 117/1/4 120/1/4
f 120/1/4 118/1/4 121/1/4
f 109/3/4 110/3/4 122/3/4
f 110/7/4 114/7/4 123/7/4
f 122/3/4 110/3/4 123/3/4
f 114/7/4 119/7/4 123/7/4
f 119/7/4 120/7/4 123/7/4
f 120/2/4 121/2/4 124/2/4
f 123/7/4 120/7/4 124/7/4
f 121/1/4 118/1/4 125/1/4
f 124/2/4 121/2/4 125/2/4
f 125/1/4 118/1/4 126/1/4
f 129/5/5 128/5/5 127/5/5
f 130/5/5 128/5/5 129/5/5
f 133/3/5 132/3/5 131/3/5
f 134/3/5 132/3/5 133/3/5
f 135/3/5 133/3/5 131/3/5
f 136/3/5 132/3/5 134/3/5
f 137/3/5 135/3/5 131/3/5
f 137/3/5 136/3/5 135/3/5
f 138/3/5 132/3/5 136/3/5
f 138/3/5 136/3/5 137/3/5
f 139/1/6 140/1/6 141/1/6
f 141/1/6 140/1/6 142/1/6
f 143/1/6 144/1/6 147/1/6
f 144/2/6 145/2/6 148/2/6
f 147/1/6 144/1/6 148/1/6
f 148/2/6 145/2/6 149/2/6
f 146/1/6 147/1/6 150/1/6
f 147/1/6 148/1/6 150/1/6
f 150/1/6 148/1/6 151/1/6
f 151/1/6 148/1/6 152/1/6
f 150/2/6 151/2/6 153/2/6
f 153/2/6 151/2/6 154/2/6
f 155/1/6 156/1/6 158/1/6
f 157/1/6 158/1/6 159/1/6
f 158/1/6 156/1/6 160/1/6
f 159/1/6 158/1/6 160/1/6
