# MagicaVoxel @ Ephtracy

# group
o 

# material
mtllib Voxel RPG Weapons-17.mtl
usemtl palette

# normals
vn -1 0 0
vn 1 0 0
vn 0 0 1
vn 0 0 -1
vn 0 -1 0
vn 0 1 0

# texcoords
vt 0.220703 0.5
vt 0.306641 0.5
vt 0.923828 0.5
vt 0.931641 0.5
vt 0.962891 0.5

# verts
v 1.6 3.8 -0.8
v 1.6 3.8 -0.9
v 1.6 3.9 -0.8
v 1.6 3.9 -0.9
v 1.6 4.4 -0.8
v 1.6 4.4 -0.9
v 1.7 3.5 -0.8
v 1.7 3.5 -0.9
v 1.7 3.7 -0.8
v 1.7 3.7 -0.9
v 1.7 3.8 -0.8
v 1.7 3.8 -0.9
v 1.7 4.4 -0.8
v 1.7 4.4 -0.9
v 1.7 4.5 -0.8
v 1.7 4.5 -0.9
v 1.8 3.5 -0.8
v 1.8 3.5 -0.9
v 1.8 3.7 -0.8
v 1.8 3.7 -0.9
v 1.8 3.9 -0.8
v 1.8 3.9 -0.9
v 1.8 4.3 -0.8
v 1.8 4.3 -0.9
v 1.8 4.4 -0.8
v 1.8 4.4 -0.9
v 1.8 4.5 -0.8
v 1.8 4.5 -0.9
v 1.6 3.8 -0.8
v 1.6 3.9 -0.8
v 1.6 4.4 -0.8
v 1.7 3.5 -0.8
v 1.7 3.7 -0.8
v 1.7 3.8 -0.8
v 1.7 3.9 -0.8
v 1.7 4.3 -0.8
v 1.7 4.4 -0.8
v 1.7 4.5 -0.8
v 1.8 3.5 -0.8
v 1.8 3.7 -0.8
v 1.8 3.9 -0.8
v 1.8 4.3 -0.8
v 1.8 4.4 -0.8
v 1.8 4.5 -0.8
v 1.6 3.8 -0.9
v 1.6 3.9 -0.9
v 1.6 4.4 -0.9
v 1.7 3.5 -0.9
v 1.7 3.7 -0.9
v 1.7 3.8 -0.9
v 1.7 3.9 -0.9
v 1.7 4.3 -0.9
v 1.7 4.4 -0.9
v 1.7 4.5 -0.9
v 1.8 3.5 -0.9
v 1.8 3.7 -0.9
v 1.8 3.9 -0.9
v 1.8 4.3 -0.9
v 1.8 4.4 -0.9
v 1.8 4.5 -0.9
v 1.7 3.5 -0.8
v 1.8 3.5 -0.8
v 1.7 3.5 -0.9
v 1.8 3.5 -0.9
v 1.6 3.8 -0.8
v 1.7 3.8 -0.8
v 1.6 3.8 -0.9
v 1.7 3.8 -0.9
v 1.6 4.4 -0.8
v 1.7 4.4 -0.8
v 1.6 4.4 -0.9
v 1.7 4.4 -0.9
v 1.7 4.5 -0.8
v 1.8 4.5 -0.8
v 1.7 4.5 -0.9
v 1.8 4.5 -0.9

# faces
f 3/1/1 2/1/1 1/1/1
f 4/1/1 2/1/1 3/1/1
f 5/5/1 4/5/1 3/5/1
f 6/5/1 4/5/1 5/5/1
f 9/2/1 8/2/1 7/2/1
f 10/2/1 8/2/1 9/2/1
f 11/1/1 10/1/1 9/1/1
f 12/1/1 10/1/1 11/1/1
f 15/5/1 14/5/1 13/5/1
f 16/5/1 14/5/1 15/5/1
f 17/2/2 18/2/2 19/2/2
f 19/2/2 18/2/2 20/2/2
f 19/1/2 20/1/2 21/1/2
f 21/1/2 20/1/2 22/1/2
f 21/4/2 22/4/2 23/4/2
f 23/4/2 22/4/2 24/4/2
f 23/3/2 24/3/2 25/3/2
f 25/3/2 24/3/2 26/3/2
f 25/5/2 26/5/2 27/5/2
f 27/5/2 26/5/2 28/5/2
f 34/1/3 30/1/3 29/1/3
f 35/5/3 31/5/3 30/5/3
f 35/1/3 30/1/3 34/1/3
f 36/5/3 31/5/3 35/5/3
f 37/5/3 31/5/3 36/5/3
f 39/2/3 33/2/3 32/2/3
f 40/1/3 34/1/3 33/1/3
f 40/2/3 33/2/3 39/2/3
f 40/1/3 35/1/3 34/1/3
f 41/4/3 36/4/3 35/4/3
f 41/1/3 35/1/3 40/1/3
f 42/3/3 37/3/3 36/3/3
f 42/4/3 36/4/3 41/4/3
f 43/5/3 38/5/3 37/5/3
f 43/3/3 37/3/3 42/3/3
f 44/5/3 38/5/3 43/5/3
f 45/1/4 46/1/4 50/1/4
f 46/5/4 47/5/4 51/5/4
f 50/1/4 46/1/4 51/1/4
f 51/5/4 47/5/4 52/5/4
f 52/5/4 47/5/4 53/5/4
f 48/2/4 49/2/4 55/2/4
f 49/1/4 50/1/4 56/1/4
f 55/2/4 49/2/4 56/2/4
f 50/1/4 51/1/4 56/1/4
f 51/4/4 52/4/4 57/4/4
f 56/1/4 51/1/4 57/1/4
f 52/3/4 53/3/4 58/3/4
f 57/4/4 52/4/4 58/4/4
f 53/5/4 54/5/4 59/5/4
f 58/3/4 53/3/4 59/3/4
f 59/5/4 54/5/4 60/5/4
f 63/2/5 62/2/5 61/2/5
f 64/2/5 62/2/5 63/2/5
f 67/1/5 66/1/5 65/1/5
f 68/1/5 66/1/5 67/1/5
f 69/5/6 70/5/6 71/5/6
f 71/5/6 70/5/6 72/5/6
f 73/5/6 74/5/6 75/5/6
f 75/5/6 74/5/6 76/5/6
