# MagicaVoxel @ Ephtracy

# group
o 

# material
mtllib Voxel RPG Weapons-18.mtl
usemtl palette

# normals
vn -1 0 0
vn 1 0 0
vn 0 0 1
vn 0 0 -1
vn 0 -1 0
vn 0 1 0

# texcoords
vt 0.220703 0.5
vt 0.306641 0.5
vt 0.482422 0.5
vt 0.923828 0.5
vt 0.931641 0.5
vt 0.962891 0.5

# verts
v 0.9 3.9 -0.7
v 0.9 3.9 -1
v 0.9 4 -0.7
v 0.9 4 -1
v 1 4 -0.8
v 1 4 -0.9
v 1 4.7 -0.8
v 1 4.7 -0.9
v 1.1 3.5 -0.8
v 1.1 3.5 -0.9
v 1.1 3.6 -0.8
v 1.1 3.6 -0.9
v 1.1 3.8 -0.8
v 1.1 3.8 -0.9
v 1.1 3.9 -0.8
v 1.1 3.9 -0.9
v 1.1 4.7 -0.8
v 1.1 4.7 -0.9
v 1.1 4.8 -0.8
v 1.1 4.8 -0.9
v 1.2 3.5 -0.8
v 1.2 3.5 -0.9
v 1.2 3.6 -0.8
v 1.2 3.6 -0.9
v 1.2 3.8 -0.8
v 1.2 3.8 -0.9
v 1.2 3.9 -0.8
v 1.2 3.9 -0.9
v 1.2 4.7 -0.8
v 1.2 4.7 -0.9
v 1.2 4.8 -0.8
v 1.2 4.8 -0.9
v 1.3 4 -0.8
v 1.3 4 -0.9
v 1.3 4.7 -0.8
v 1.3 4.7 -0.9
v 1.4 3.9 -0.7
v 1.4 3.9 -1
v 1.4 4 -0.7
v 1.4 4 -1
v 0.9 3.9 -0.7
v 0.9 4 -0.7
v 1.4 3.9 -0.7
v 1.4 4 -0.7
v 1 4 -0.8
v 1 4.7 -0.8
v 1.1 3.5 -0.8
v 1.1 3.6 -0.8
v 1.1 3.8 -0.8
v 1.1 3.9 -0.8
v 1.1 4 -0.8
v 1.1 4.7 -0.8
v 1.1 4.8 -0.8
v 1.2 3.5 -0.8
v 1.2 3.6 -0.8
v 1.2 3.8 -0.8
v 1.2 3.9 -0.8
v 1.2 4 -0.8
v 1.2 4.7 -0.8
v 1.2 4.8 -0.8
v 1.3 4 -0.8
v 1.3 4.7 -0.8
v 1 4 -0.9
v 1 4.7 -0.9
v 1.1 3.5 -0.9
v 1.1 3.6 -0.9
v 1.1 3.8 -0.9
v 1.1 3.9 -0.9
v 1.1 4 -0.9
v 1.1 4.7 -0.9
v 1.1 4.8 -0.9
v 1.2 3.5 -0.9
v 1.2 3.6 -0.9
v 1.2 3.8 -0.9
v 1.2 3.9 -0.9
v 1.2 4 -0.9
v 1.2 4.7 -0.9
v 1.2 4.8 -0.9
v 1.3 4 -0.9
v 1.3 4.7 -0.9
v 0.9 3.9 -1
v 0.9 4 -1
v 1.4 3.9 -1
v 1.4 4 -1
v 1.1 3.5 -0.8
v 1.2 3.5 -0.8
v 1.1 3.5 -0.9
v 1.2 3.5 -0.9
v 0.9 3.9 -0.7
v 1.4 3.9 -0.7
v 1 3.9 -0.8
v 1.1 3.9 -0.8
v 1.2 3.9 -0.8
v 1.3 3.9 -0.8
v 1 3.9 -0.9
v 1.1 3.9 -0.9
v 1.2 3.9 -0.9
v 1.3 3.9 -0.9
v 0.9 3.9 -1
v 1.4 3.9 -1
v 0.9 4 -0.7
v 1.4 4 -0.7
v 1 4 -0.8
v 1.1 4 -0.8
v 1.2 4 -0.8
v 1.3 4 -0.8
v 1 4 -0.9
v 1.1 4 -0.9
v 1.2 4 -0.9
v 1.3 4 -0.9
v 0.9 4 -1
v 1.4 4 -1
v 1 4.7 -0.8
v 1.1 4.7 -0.8
v 1.2 4.7 -0.8
v 1.3 4.7 -0.8
v 1 4.7 -0.9
v 1.1 4.7 -0.9
v 1.2 4.7 -0.9
v 1.3 4.7 -0.9
v 1.1 4.8 -0.8
v 1.2 4.8 -0.8
v 1.1 4.8 -0.9
v 1.2 4.8 -0.9

# faces
f 3/2/1 2/2/1 1/2/1
f 4/2/1 2/2/1 3/2/1
f 7/6/1 6/6/1 5/6/1
f 8/6/1 6/6/1 7/6/1
f 11/3/1 10/3/1 9/3/1
f 12/3/1 10/3/1 11/3/1
f 13/2/1 12/2/1 11/2/1
f 14/2/1 12/2/1 13/2/1
f 15/1/1 14/1/1 13/1/1
f 16/1/1 14/1/1 15/1/1
f 19/6/1 18/6/1 17/6/1
f 20/6/1 18/6/1 19/6/1
f 21/3/2 22/3/2 23/3/2
f 23/3/2 22/3/2 24/3/2
f 23/2/2 24/2/2 25/2/2
f 25/2/2 24/2/2 26/2/2
f 25/1/2 26/1/2 27/1/2
f 27/1/2 26/1/2 28/1/2
f 29/6/2 30/6/2 31/6/2
f 31/6/2 30/6/2 32/6/2
f 33/4/2 34/4/2 35/4/2
f 35/4/2 34/4/2 36/4/2
f 37/2/2 38/2/2 39/2/2
f 39/2/2 38/2/2 40/2/2
f 43/2/3 42/2/3 41/2/3
f 44/2/3 42/2/3 43/2/3
f 51/6/3 46/6/3 45/6/3
f 52/6/3 46/6/3 51/6/3
f 54/3/3 48/3/3 47/3/3
f 55/2/3 49/2/3 48/2/3
f 55/3/3 48/3/3 54/3/3
f 56/1/3 50/1/3 49/1/3
f 56/2/3 49/2/3 55/2/3
f 57/1/3 50/1/3 56/1/3
f 58/5/3 52/5/3 51/5/3
f 59/6/3 53/6/3 52/6/3
f 59/5/3 52/5/3 58/5/3
f 60/6/3 53/6/3 59/6/3
f 61/4/3 59/4/3 58/4/3
f 62/4/3 59/4/3 61/4/3
f 63/6/4 64/6/4 69/6/4
f 69/6/4 64/6/4 70/6/4
f 65/3/4 66/3/4 72/3/4
f 66/2/4 67/2/4 73/2/4
f 72/3/4 66/3/4 73/3/4
f 67/1/4 68/1/4 74/1/4
f 73/2/4 67/2/4 74/2/4
f 74/1/4 68/1/4 75/1/4
f 69/5/4 70/5/4 76/5/4
f 70/6/4 71/6/4 77/6/4
f 76/5/4 70/5/4 77/5/4
f 77/6/4 71/6/4 78/6/4
f 76/4/4 77/4/4 79/4/4
f 79/4/4 77/4/4 80/4/4
f 81/2/4 82/2/4 83/2/4
f 83/2/4 82/2/4 84/2/4
f 87/3/5 86/3/5 85/3/5
f 88/3/5 86/3/5 87/3/5
f 91/2/5 90/2/5 89/2/5
f 92/2/5 90/2/5 91/2/5
f 93/2/5 90/2/5 92/2/5
f 94/2/5 90/2/5 93/2/5
f 95/2/5 91/2/5 89/2/5
f 95/1/5 92/1/5 91/1/5
f 96/1/5 92/1/5 95/1/5
f 97/1/5 94/1/5 93/1/5
f 98/2/5 90/2/5 94/2/5
f 98/1/5 94/1/5 97/1/5
f 99/2/5 97/2/5 96/2/5
f 99/2/5 96/2/5 95/2/5
f 99/2/5 98/2/5 97/2/5
f 99/2/5 95/2/5 89/2/5
f 100/2/5 90/2/5 98/2/5
f 100/2/5 98/2/5 99/2/5
f 101/2/6 102/2/6 103/2/6
f 103/2/6 102/2/6 104/2/6
f 104/2/6 102/2/6 105/2/6
f 105/2/6 102/2/6 106/2/6
f 101/2/6 103/2/6 107/2/6
f 106/2/6 102/2/6 110/2/6
f 108/2/6 109/2/6 111/2/6
f 109/2/6 110/2/6 111/2/6
f 101/2/6 107/2/6 111/2/6
f 107/2/6 108/2/6 111/2/6
f 110/2/6 102/2/6 112/2/6
f 111/2/6 110/2/6 112/2/6
f 113/6/6 114/6/6 117/6/6
f 117/6/6 114/6/6 118/6/6
f 115/4/6 116/4/6 119/4/6
f 119/4/6 116/4/6 120/4/6
f 121/6/6 122/6/6 123/6/6
f 123/6/6 122/6/6 124/6/6
