# MagicaVoxel @ Ephtracy

# group
o 

# material
mtllib Voxel RPG Weapons-21.mtl
usemtl palette

# normals
vn -1 0 0
vn 1 0 0
vn 0 0 1
vn 0 0 -1
vn 0 -1 0
vn 0 1 0

# texcoords
vt 0.220703 0.5
vt 0.306641 0.5
vt 0.482422 0.5
vt 0.923828 0.5
vt 0.931641 0.5
vt 0.962891 0.5

# verts
v 0.3 3.9 -0.7
v 0.3 3.9 -1
v 0.3 4 -0.7
v 0.3 4 -1
v 0.4 3.5 -0.8
v 0.4 3.5 -0.9
v 0.4 3.6 -0.8
v 0.4 3.6 -0.9
v 0.4 3.8 -0.8
v 0.4 3.8 -0.9
v 0.4 3.9 -0.8
v 0.4 3.9 -0.9
v 0.4 4 -0.8
v 0.4 4 -0.9
v 0.4 5 -0.8
v 0.4 5 -0.9
v 0.5 5 -0.8
v 0.5 5 -0.9
v 0.5 5.1 -0.8
v 0.5 5.1 -0.9
v 0.6 3.5 -0.8
v 0.6 3.5 -0.9
v 0.6 3.6 -0.8
v 0.6 3.6 -0.9
v 0.6 3.8 -0.8
v 0.6 3.8 -0.9
v 0.6 3.9 -0.8
v 0.6 3.9 -0.9
v 0.6 4 -0.8
v 0.6 4 -0.9
v 0.6 4.5 -0.8
v 0.6 4.5 -0.9
v 0.6 4.6 -0.8
v 0.6 4.6 -0.9
v 0.6 4.7 -0.8
v 0.6 4.7 -0.9
v 0.6 5 -0.8
v 0.6 5 -0.9
v 0.6 5.1 -0.8
v 0.6 5.1 -0.9
v 0.7 3.9 -0.7
v 0.7 3.9 -1
v 0.7 4 -0.7
v 0.7 4 -1
v 0.3 3.9 -0.7
v 0.3 4 -0.7
v 0.7 3.9 -0.7
v 0.7 4 -0.7
v 0.4 3.5 -0.8
v 0.4 3.6 -0.8
v 0.4 3.8 -0.8
v 0.4 3.9 -0.8
v 0.4 4 -0.8
v 0.4 5 -0.8
v 0.5 4 -0.8
v 0.5 4.5 -0.8
v 0.5 4.6 -0.8
v 0.5 4.7 -0.8
v 0.5 5 -0.8
v 0.5 5.1 -0.8
v 0.6 3.5 -0.8
v 0.6 3.6 -0.8
v 0.6 3.8 -0.8
v 0.6 3.9 -0.8
v 0.6 4 -0.8
v 0.6 4.5 -0.8
v 0.6 4.6 -0.8
v 0.6 4.7 -0.8
v 0.6 5 -0.8
v 0.6 5.1 -0.8
v 0.4 3.5 -0.9
v 0.4 3.6 -0.9
v 0.4 3.8 -0.9
v 0.4 3.9 -0.9
v 0.4 4 -0.9
v 0.4 5 -0.9
v 0.5 4 -0.9
v 0.5 4.5 -0.9
v 0.5 4.6 -0.9
v 0.5 4.7 -0.9
v 0.5 5 -0.9
v 0.5 5.1 -0.9
v 0.6 3.5 -0.9
v 0.6 3.6 -0.9
v 0.6 3.8 -0.9
v 0.6 3.9 -0.9
v 0.6 4 -0.9
v 0.6 4.5 -0.9
v 0.6 4.6 -0.9
v 0.6 4.7 -0.9
v 0.6 5 -0.9
v 0.6 5.1 -0.9
v 0.3 3.9 -1
v 0.3 4 -1
v 0.7 3.9 -1
v 0.7 4 -1
v 0.4 3.5 -0.8
v 0.6 3.5 -0.8
v 0.4 3.5 -0.9
v 0.6 3.5 -0.9
v 0.3 3.9 -0.7
v 0.7 3.9 -0.7
v 0.4 3.9 -0.8
v 0.6 3.9 -0.8
v 0.4 3.9 -0.9
v 0.6 3.9 -0.9
v 0.3 3.9 -1
v 0.7 3.9 -1
v 0.3 4 -0.7
v 0.7 4 -0.7
v 0.4 4 -0.8
v 0.5 4 -0.8
v 0.6 4 -0.8
v 0.4 4 -0.9
v 0.5 4 -0.9
v 0.6 4 -0.9
v 0.3 4 -1
v 0.7 4 -1
v 0.4 5 -0.8
v 0.5 5 -0.8
v 0.4 5 -0.9
v 0.5 5 -0.9
v 0.5 5.1 -0.8
v 0.6 5.1 -0.8
v 0.5 5.1 -0.9
v 0.6 5.1 -0.9

# faces
f 3/2/1 2/2/1 1/2/1
f 4/2/1 2/2/1 3/2/1
f 7/3/1 6/3/1 5/3/1
f 8/3/1 6/3/1 7/3/1
f 9/2/1 8/2/1 7/2/1
f 10/2/1 8/2/1 9/2/1
f 11/1/1 10/1/1 9/1/1
f 12/1/1 10/1/1 11/1/1
f 15/6/1 14/6/1 13/6/1
f 16/6/1 14/6/1 15/6/1
f 19/6/1 18/6/1 17/6/1
f 20/6/1 18/6/1 19/6/1
f 21/3/2 22/3/2 23/3/2
f 23/3/2 22/3/2 24/3/2
f 23/2/2 24/2/2 25/2/2
f 25/2/2 24/2/2 26/2/2
f 25/1/2 26/1/2 27/1/2
f 27/1/2 26/1/2 28/1/2
f 29/5/2 30/5/2 31/5/2
f 31/5/2 30/5/2 32/5/2
f 31/4/2 32/4/2 33/4/2
f 33/4/2 32/4/2 34/4/2
f 33/5/2 34/5/2 35/5/2
f 35/5/2 34/5/2 36/5/2
f 35/4/2 36/4/2 37/4/2
f 37/4/2 36/4/2 38/4/2
f 37/6/2 38/6/2 39/6/2
f 39/6/2 38/6/2 40/6/2
f 41/2/2 42/2/2 43/2/2
f 43/2/2 42/2/2 44/2/2
f 47/2/3 46/2/3 45/2/3
f 48/2/3 46/2/3 47/2/3
f 55/6/3 54/6/3 53/6/3
f 56/6/3 54/6/3 55/6/3
f 57/6/3 54/6/3 56/6/3
f 58/6/3 54/6/3 57/6/3
f 59/6/3 54/6/3 58/6/3
f 61/3/3 50/3/3 49/3/3
f 62/2/3 51/2/3 50/2/3
f 62/3/3 50/3/3 61/3/3
f 63/1/3 52/1/3 51/1/3
f 63/2/3 51/2/3 62/2/3
f 64/1/3 52/1/3 63/1/3
f 65/5/3 56/5/3 55/5/3
f 66/4/3 57/4/3 56/4/3
f 66/5/3 56/5/3 65/5/3
f 67/5/3 58/5/3 57/5/3
f 67/4/3 57/4/3 66/4/3
f 68/4/3 59/4/3 58/4/3
f 68/5/3 58/5/3 67/5/3
f 69/6/3 60/6/3 59/6/3
f 69/4/3 59/4/3 68/4/3
f 70/6/3 60/6/3 69/6/3
f 75/6/4 76/6/4 77/6/4
f 77/6/4 76/6/4 78/6/4
f 78/6/4 76/6/4 79/6/4
f 79/6/4 76/6/4 80/6/4
f 80/6/4 76/6/4 81/6/4
f 71/3/4 72/3/4 83/3/4
f 72/2/4 73/2/4 84/2/4
f 83/3/4 72/3/4 84/3/4
f 73/1/4 74/1/4 85/1/4
f 84/2/4 73/2/4 85/2/4
f 85/1/4 74/1/4 86/1/4
f 77/5/4 78/5/4 87/5/4
f 78/4/4 79/4/4 88/4/4
f 87/5/4 78/5/4 88/5/4
f 79/5/4 80/5/4 89/5/4
f 88/4/4 79/4/4 89/4/4
f 80/4/4 81/4/4 90/4/4
f 89/5/4 80/5/4 90/5/4
f 81/6/4 82/6/4 91/6/4
f 90/4/4 81/4/4 91/4/4
f 91/6/4 82/6/4 92/6/4
f 93/2/4 94/2/4 95/2/4
f 95/2/4 94/2/4 96/2/4
f 99/3/5 98/3/5 97/3/5
f 100/3/5 98/3/5 99/3/5
f 103/2/5 102/2/5 101/2/5
f 104/2/5 102/2/5 103/2/5
f 105/2/5 103/2/5 101/2/5
f 106/2/5 102/2/5 104/2/5
f 107/2/5 105/2/5 101/2/5
f 107/2/5 106/2/5 105/2/5
f 108/2/5 102/2/5 106/2/5
f 108/2/5 106/2/5 107/2/5
f 109/2/6 110/2/6 111/2/6
f 111/2/6 110/2/6 112/2/6
f 112/2/6 110/2/6 113/2/6
f 109/2/6 111/2/6 114/2/6
f 113/2/6 110/2/6 116/2/6
f 114/2/6 115/2/6 117/2/6
f 115/2/6 116/2/6 117/2/6
f 109/2/6 114/2/6 117/2/6
f 116/2/6 110/2/6 118/2/6
f 117/2/6 116/2/6 118/2/6
f 119/6/6 120/6/6 121/6/6
f 121/6/6 120/6/6 122/6/6
f 123/6/6 124/6/6 125/6/6
f 125/6/6 124/6/6 126/6/6
