# MagicaVoxel @ Ephtracy

# group
o 

# material
mtllib Voxel RPG Weapons-22.mtl
usemtl palette

# normals
vn -1 0 0
vn 1 0 0
vn 0 0 1
vn 0 0 -1
vn 0 -1 0
vn 0 1 0

# texcoords
vt 0.0136719 0.5
vt 0.0566406 0.5
vt 0.220703 0.5
vt 0.306641 0.5
vt 0.923828 0.5
vt 0.931641 0.5
vt 0.962891 0.5

# verts
v -0.3 3.9 -0.7
v -0.3 3.9 -0.8
v -0.3 3.9 -0.9
v -0.3 3.9 -1
v -0.3 4 -0.7
v -0.3 4 -0.8
v -0.3 4 -0.9
v -0.3 4 -1
v -0.2 3.5 -0.8
v -0.2 3.5 -0.9
v -0.2 3.6 -0.8
v -0.2 3.6 -0.9
v -0.2 3.7 -0.8
v -0.2 3.7 -0.9
v -0.2 3.8 -0.8
v -0.2 3.8 -0.9
v -0.2 3.9 -0.8
v -0.2 3.9 -0.9
v -0.2 4 -0.8
v -0.2 4 -0.9
v -0.2 4.2 -0.8
v -0.2 4.2 -0.9
v -0.2 4.9 -0.8
v -0.2 4.9 -0.9
v -0.1 4.9 -0.8
v -0.1 4.9 -0.9
v -0.1 5 -0.8
v -0.1 5 -0.9
v 0 5 -0.8
v 0 5 -0.9
v 0 5.1 -0.8
v 0 5.1 -0.9
v 0 3.5 -0.8
v 0 3.5 -0.9
v 0 3.6 -0.8
v 0 3.6 -0.9
v 0 3.7 -0.8
v 0 3.7 -0.9
v 0 3.8 -0.8
v 0 3.8 -0.9
v 0 3.9 -0.8
v 0 3.9 -0.9
v 0 4 -0.8
v 0 4 -0.9
v 0 4.6 -0.8
v 0 4.6 -0.9
v 0 4.7 -0.8
v 0 4.7 -0.9
v 0 4.8 -0.8
v 0 4.8 -0.9
v 0.1 3.9 -0.7
v 0.1 3.9 -0.8
v 0.1 3.9 -0.9
v 0.1 3.9 -1
v 0.1 4 -0.7
v 0.1 4 -0.8
v 0.1 4 -0.9
v 0.1 4 -1
v 0.1 4.8 -0.8
v 0.1 4.8 -0.9
v 0.1 5 -0.8
v 0.1 5 -0.9
v 0.1 5.1 -0.8
v 0.1 5.1 -0.9
v -0.3 3.9 -0.7
v -0.3 4 -0.7
v -0.2 3.9 -0.7
v -0.2 4 -0.7
v -0.1 3.9 -0.7
v -0.1 4 -0.7
v 0 3.9 -0.7
v 0 4 -0.7
v 0.1 3.9 -0.7
v 0.1 4 -0.7
v -0.2 3.5 -0.8
v -0.2 3.6 -0.8
v -0.2 3.7 -0.8
v -0.2 3.8 -0.8
v -0.2 3.9 -0.8
v -0.2 4 -0.8
v -0.2 4.2 -0.8
v -0.2 4.9 -0.8
v -0.1 3.9 -0.8
v -0.1 4 -0.8
v -0.1 4.2 -0.8
v -0.1 4.6 -0.8
v -0.1 4.7 -0.8
v -0.1 4.8 -0.8
v -0.1 4.9 -0.8
v -0.1 5 -0.8
v 0 3.5 -0.8
v 0 3.6 -0.8
v 0 3.7 -0.8
v 0 3.8 -0.8
v 0 3.9 -0.8
v 0 4 -0.8
v 0 4.6 -0.8
v 0 4.7 -0.8
v 0 4.8 -0.8
v 0 4.9 -0.8
v 0 5 -0.8
v 0 5.1 -0.8
v 0.1 4.8 -0.8
v 0.1 5 -0.8
v 0.1 5.1 -0.8
v -0.2 3.5 -0.9
v -0.2 3.6 -0.9
v -0.2 3.7 -0.9
v -0.2 3.8 -0.9
v -0.2 3.9 -0.9
v -0.2 4 -0.9
v -0.2 4.2 -0.9
v -0.2 4.9 -0.9
v -0.1 3.9 -0.9
v -0.1 4 -0.9
v -0.1 4.2 -0.9
v -0.1 4.6 -0.9
v -0.1 4.7 -0.9
v -0.1 4.8 -0.9
v -0.1 4.9 -0.9
v -0.1 5 -0.9
v 0 3.5 -0.9
v 0 3.6 -0.9
v 0 3.7 -0.9
v 0 3.8 -0.9
v 0 3.9 -0.9
v 0 4 -0.9
v 0 4.6 -0.9
v 0 4.7 -0.9
v 0 4.8 -0.9
v 0 4.9 -0.9
v 0 5 -0.9
v 0 5.1 -0.9
v 0.1 4.8 -0.9
v 0.1 5 -0.9
v 0.1 5.1 -0.9
v -0.3 3.9 -1
v -0.3 4 -1
v -0.2 3.9 -1
v -0.2 4 -1
v -0.1 3.9 -1
v -0.1 4 -1
v 0 3.9 -1
v 0 4 -1
v 0.1 3.9 -1
v 0.1 4 -1
v -0.2 3.5 -0.8
v 0 3.5 -0.8
v -0.2 3.5 -0.9
v 0 3.5 -0.9
v -0.3 3.9 -0.7
v -0.2 3.9 -0.7
v -0.1 3.9 -0.7
v 0 3.9 -0.7
v 0.1 3.9 -0.7
v -0.3 3.9 -0.8
v -0.2 3.9 -0.8
v -0.1 3.9 -0.8
v 0 3.9 -0.8
v 0.1 3.9 -0.8
v -0.3 3.9 -0.9
v -0.2 3.9 -0.9
v -0.1 3.9 -0.9
v 0 3.9 -0.9
v 0.1 3.9 -0.9
v -0.3 3.9 -1
v -0.2 3.9 -1
v -0.1 3.9 -1
v 0 3.9 -1
v 0.1 3.9 -1
v 0 4.8 -0.8
v 0.1 4.8 -0.8
v 0 4.8 -0.9
v 0.1 4.8 -0.9
v -0.3 4 -0.7
v -0.2 4 -0.7
v -0.1 4 -0.7
v 0 4 -0.7
v 0.1 4 -0.7
v -0.3 4 -0.8
v -0.2 4 -0.8
v -0.1 4 -0.8
v 0 4 -0.8
v 0.1 4 -0.8
v -0.3 4 -0.9
v -0.2 4 -0.9
v -0.1 4 -0.9
v 0 4 -0.9
v 0.1 4 -0.9
v -0.3 4 -1
v -0.2 4 -1
v -0.1 4 -1
v 0 4 -1
v 0.1 4 -1
v -0.2 4.9 -0.8
v -0.1 4.9 -0.8
v -0.2 4.9 -0.9
v -0.1 4.9 -0.9
v -0.1 5 -0.8
v 0 5 -0.8
v -0.1 5 -0.9
v 0 5 -0.9
v 0 5.1 -0.8
v 0.1 5.1 -0.8
v 0 5.1 -0.9
v 0.1 5.1 -0.9

# faces
f 5/4/1 2/4/1 1/4/1
f 6/3/1 3/3/1 2/3/1
f 6/4/1 2/4/1 5/4/1
f 7/4/1 4/4/1 3/4/1
f 7/3/1 3/3/1 6/3/1
f 8/4/1 4/4/1 7/4/1
f 11/6/1 10/6/1 9/6/1
f 12/6/1 10/6/1 11/6/1
f 13/1/1 12/1/1 11/1/1
f 14/1/1 12/1/1 13/1/1
f 15/2/1 14/2/1 13/2/1
f 16/2/1 14/2/1 15/2/1
f 17/1/1 16/1/1 15/1/1
f 18/1/1 16/1/1 17/1/1
f 21/5/1 20/5/1 19/5/1
f 22/5/1 20/5/1 21/5/1
f 23/7/1 22/7/1 21/7/1
f 24/7/1 22/7/1 23/7/1
f 27/7/1 26/7/1 25/7/1
f 28/7/1 26/7/1 27/7/1
f 31/7/1 30/7/1 29/7/1
f 32/7/1 30/7/1 31/7/1
f 33/6/2 34/6/2 35/6/2
f 35/6/2 34/6/2 36/6/2
f 35/1/2 36/1/2 37/1/2
f 37/1/2 36/1/2 38/1/2
f 37/2/2 38/2/2 39/2/2
f 39/2/2 38/2/2 40/2/2
f 39/1/2 40/1/2 41/1/2
f 41/1/2 40/1/2 42/1/2
f 43/6/2 44/6/2 45/6/2
f 45/6/2 44/6/2 46/6/2
f 45/5/2 46/5/2 47/5/2
f 47/5/2 46/5/2 48/5/2
f 47/6/2 48/6/2 49/6/2
f 49/6/2 48/6/2 50/6/2
f 51/3/2 52/3/2 55/3/2
f 52/4/2 53/4/2 56/4/2
f 55/3/2 52/3/2 56/3/2
f 53/3/2 54/3/2 57/3/2
f 56/4/2 53/4/2 57/4/2
f 57/3/2 54/3/2 58/3/2
f 59/5/2 60/5/2 61/5/2
f 61/5/2 60/5/2 62/5/2
f 61/7/2 62/7/2 63/7/2
f 63/7/2 62/7/2 64/7/2
f 67/4/3 66/4/3 65/4/3
f 68/4/3 66/4/3 67/4/3
f 69/3/3 68/3/3 67/3/3
f 70/3/3 68/3/3 69/3/3
f 71/4/3 70/4/3 69/4/3
f 72/4/3 70/4/3 71/4/3
f 73/3/3 72/3/3 71/3/3
f 74/3/3 72/3/3 73/3/3
f 83/1/3 79/1/3 78/1/3
f 84/5/3 81/5/3 80/5/3
f 85/7/3 82/7/3 81/7/3
f 85/5/3 81/5/3 84/5/3
f 86/7/3 82/7/3 85/7/3
f 87/7/3 82/7/3 86/7/3
f 88/7/3 82/7/3 87/7/3
f 89/7/3 82/7/3 88/7/3
f 91/6/3 76/6/3 75/6/3
f 92/1/3 77/1/3 76/1/3
f 92/6/3 76/6/3 91/6/3
f 93/2/3 78/2/3 77/2/3
f 93/1/3 77/1/3 92/1/3
f 94/1/3 83/1/3 78/1/3
f 94/2/3 78/2/3 93/2/3
f 95/1/3 83/1/3 94/1/3
f 96/6/3 85/6/3 84/6/3
f 96/6/3 86/6/3 85/6/3
f 97/5/3 87/5/3 86/5/3
f 97/6/3 86/6/3 96/6/3
f 98/6/3 88/6/3 87/6/3
f 98/5/3 87/5/3 97/5/3
f 99/5/3 89/5/3 88/5/3
f 99/6/3 88/6/3 98/6/3
f 100/7/3 90/7/3 89/7/3
f 100/5/3 89/5/3 99/5/3
f 101/7/3 90/7/3 100/7/3
f 103/5/3 101/5/3 100/5/3
f 103/5/3 100/5/3 99/5/3
f 104/7/3 102/7/3 101/7/3
f 104/5/3 101/5/3 103/5/3
f 105/7/3 102/7/3 104/7/3
f 109/1/4 110/1/4 114/1/4
f 111/5/4 112/5/4 115/5/4
f 112/7/4 113/7/4 116/7/4
f 115/5/4 112/5/4 116/5/4
f 116/7/4 113/7/4 117/7/4
f 117/7/4 113/7/4 118/7/4
f 118/7/4 113/7/4 119/7/4
f 119/7/4 113/7/4 120/7/4
f 106/6/4 107/6/4 122/6/4
f 107/1/4 108/1/4 123/1/4
f 122/6/4 107/6/4 123/6/4
f 108/2/4 109/2/4 124/2/4
f 123/1/4 108/1/4 124/1/4
f 109/1/4 114/1/4 125/1/4
f 124/2/4 109/2/4 125/2/4
f 125/1/4 114/1/4 126/1/4
f 115/6/4 116/6/4 127/6/4
f 116/6/4 117/6/4 127/6/4
f 117/5/4 118/5/4 128/5/4
f 127/6/4 117/6/4 128/6/4
f 118/6/4 119/6/4 129/6/4
f 128/5/4 118/5/4 129/5/4
f 119/5/4 120/5/4 130/5/4
f 129/6/4 119/6/4 130/6/4
f 120/7/4 121/7/4 131/7/4
f 130/5/4 120/5/4 131/5/4
f 131/7/4 121/7/4 132/7/4
f 131/5/4 132/5/4 134/5/4
f 130/5/4 131/5/4 134/5/4
f 132/7/4 133/7/4 135/7/4
f 134/5/4 132/5/4 135/5/4
f 135/7/4 133/7/4 136/7/4
f 137/4/4 138/4/4 139/4/4
f 139/4/4 138/4/4 140/4/4
f 139/3/4 140/3/4 141/3/4
f 141/3/4 140/3/4 142/3/4
f 141/4/4 142/4/4 143/4/4
f 143/4/4 142/4/4 144/4/4
f 143/3/4 144/3/4 145/3/4
f 145/3/4 144/3/4 146/3/4
f 149/6/5 148/6/5 147/6/5
f 150/6/5 148/6/5 149/6/5
f 156/4/5 152/4/5 151/4/5
f 157/3/5 153/3/5 152/3/5
f 157/4/5 152/4/5 156/4/5
f 158/4/5 154/4/5 153/4/5
f 158/3/5 153/3/5 157/3/5
f 159/3/5 155/3/5 154/3/5
f 159/4/5 154/4/5 158/4/5
f 160/3/5 155/3/5 159/3/5
f 161/3/5 157/3/5 156/3/5
f 162/3/5 157/3/5 161/3/5
f 164/4/5 160/4/5 159/4/5
f 165/4/5 160/4/5 164/4/5
f 166/4/5 162/4/5 161/4/5
f 167/3/5 163/3/5 162/3/5
f 167/4/5 162/4/5 166/4/5
f 168/4/5 164/4/5 163/4/5
f 168/3/5 163/3/5 167/3/5
f 169/3/5 165/3/5 164/3/5
f 169/4/5 164/4/5 168/4/5
f 170/3/5 165/3/5 169/3/5
f 173/5/5 172/5/5 171/5/5
f 174/5/5 172/5/5 173/5/5
f 175/4/6 176/4/6 180/4/6
f 176/3/6 177/3/6 181/3/6
f 180/4/6 176/4/6 181/4/6
f 177/4/6 178/4/6 182/4/6
f 181/3/6 177/3/6 182/3/6
f 178/3/6 179/3/6 183/3/6
f 182/4/6 178/4/6 183/4/6
f 183/3/6 179/3/6 184/3/6
f 180/3/6 181/3/6 185/3/6
f 185/3/6 181/3/6 186/3/6
f 183/4/6 184/4/6 188/4/6
f 188/4/6 184/4/6 189/4/6
f 185/4/6 186/4/6 190/4/6
f 186/3/6 187/3/6 191/3/6
f 190/4/6 186/4/6 191/4/6
f 187/4/6 188/4/6 192/4/6
f 191/3/6 187/3/6 192/3/6
f 188/3/6 189/3/6 193/3/6
f 192/4/6 188/4/6 193/4/6
f 193/3/6 189/3/6 194/3/6
f 195/7/6 196/7/6 197/7/6
f 197/7/6 196/7/6 198/7/6
f 199/7/6 200/7/6 201/7/6
f 201/7/6 200/7/6 202/7/6
f 203/7/6 204/7/6 205/7/6
f 205/7/6 204/7/6 206/7/6
