# MagicaVoxel @ Ephtracy

# group
o 

# material
mtllib Voxel RPG Weapons-23.mtl
usemtl palette

# normals
vn -1 0 0
vn 1 0 0
vn 0 0 1
vn 0 0 -1
vn 0 -1 0
vn 0 1 0

# texcoords
vt 0.220703 0.5
vt 0.306641 0.5
vt 0.482422 0.5
vt 0.923828 0.5
vt 0.931641 0.5
vt 0.962891 0.5

# verts
v -0.9 3.6 -0.8
v -0.9 3.6 -0.9
v -0.9 3.9 -0.8
v -0.9 3.9 -0.9
v -0.9 4 -0.8
v -0.9 4 -0.9
v -0.8 3.5 -0.8
v -0.8 3.5 -0.9
v -0.8 3.6 -0.8
v -0.8 3.6 -0.9
v -0.8 4 -0.8
v -0.8 4 -0.9
v -0.8 4.6 -0.8
v -0.8 4.6 -0.9
v -0.7 3.6 -0.8
v -0.7 3.6 -0.9
v -0.7 3.9 -0.8
v -0.7 3.9 -0.9
v -0.7 4.6 -0.8
v -0.7 4.6 -0.9
v -0.7 5 -0.8
v -0.7 5 -0.9
v -0.6 5 -0.8
v -0.6 5 -0.9
v -0.6 5.1 -0.8
v -0.6 5.1 -0.9
v -0.8 3.6 -0.8
v -0.8 3.6 -0.9
v -0.8 3.9 -0.8
v -0.8 3.9 -0.9
v -0.6 3.5 -0.8
v -0.6 3.5 -0.9
v -0.6 3.6 -0.8
v -0.6 3.6 -0.9
v -0.6 3.9 -0.8
v -0.6 3.9 -0.9
v -0.6 4 -0.8
v -0.6 4 -0.9
v -0.6 4.3 -0.8
v -0.6 4.3 -0.9
v -0.5 4.3 -0.8
v -0.5 4.3 -0.9
v -0.5 4.5 -0.8
v -0.5 4.5 -0.9
v -0.5 5 -0.8
v -0.5 5 -0.9
v -0.5 5.1 -0.8
v -0.5 5.1 -0.9
v -0.9 3.6 -0.8
v -0.9 3.9 -0.8
v -0.9 4 -0.8
v -0.8 3.5 -0.8
v -0.8 3.6 -0.8
v -0.8 3.9 -0.8
v -0.8 4 -0.8
v -0.8 4.6 -0.8
v -0.7 3.5 -0.8
v -0.7 3.6 -0.8
v -0.7 3.9 -0.8
v -0.7 4 -0.8
v -0.7 4.6 -0.8
v -0.7 5 -0.8
v -0.6 3.5 -0.8
v -0.6 3.6 -0.8
v -0.6 3.9 -0.8
v -0.6 4 -0.8
v -0.6 4.3 -0.8
v -0.6 4.5 -0.8
v -0.6 4.6 -0.8
v -0.6 5 -0.8
v -0.6 5.1 -0.8
v -0.5 4.3 -0.8
v -0.5 4.5 -0.8
v -0.5 5 -0.8
v -0.5 5.1 -0.8
v -0.9 3.6 -0.9
v -0.9 3.9 -0.9
v -0.9 4 -0.9
v -0.8 3.5 -0.9
v -0.8 3.6 -0.9
v -0.8 3.9 -0.9
v -0.8 4 -0.9
v -0.8 4.6 -0.9
v -0.7 3.5 -0.9
v -0.7 3.6 -0.9
v -0.7 3.9 -0.9
v -0.7 4 -0.9
v -0.7 4.6 -0.9
v -0.7 5 -0.9
v -0.6 3.5 -0.9
v -0.6 3.6 -0.9
v -0.6 3.9 -0.9
v -0.6 4 -0.9
v -0.6 4.3 -0.9
v -0.6 4.5 -0.9
v -0.6 4.6 -0.9
v -0.6 5 -0.9
v -0.6 5.1 -0.9
v -0.5 4.3 -0.9
v -0.5 4.5 -0.9
v -0.5 5 -0.9
v -0.5 5.1 -0.9
v -0.8 3.5 -0.8
v -0.7 3.5 -0.8
v -0.6 3.5 -0.8
v -0.8 3.5 -0.9
v -0.7 3.5 -0.9
v -0.6 3.5 -0.9
v -0.9 3.6 -0.8
v -0.8 3.6 -0.8
v -0.9 3.6 -0.9
v -0.8 3.6 -0.9
v -0.8 3.9 -0.8
v -0.7 3.9 -0.8
v -0.8 3.9 -0.9
v -0.7 3.9 -0.9
v -0.6 4.3 -0.8
v -0.5 4.3 -0.8
v -0.6 4.3 -0.9
v -0.5 4.3 -0.9
v -0.8 3.6 -0.8
v -0.7 3.6 -0.8
v -0.8 3.6 -0.9
v -0.7 3.6 -0.9
v -0.9 4 -0.8
v -0.8 4 -0.8
v -0.9 4 -0.9
v -0.8 4 -0.9
v -0.8 4.6 -0.8
v -0.7 4.6 -0.8
v -0.8 4.6 -0.9
v -0.7 4.6 -0.9
v -0.7 5 -0.8
v -0.6 5 -0.8
v -0.7 5 -0.9
v -0.6 5 -0.9
v -0.6 5.1 -0.8
v -0.5 5.1 -0.8
v -0.6 5.1 -0.9
v -0.5 5.1 -0.9

# faces
f 3/2/1 2/2/1 1/2/1
f 4/2/1 2/2/1 3/2/1
f 5/1/1 4/1/1 3/1/1
f 6/1/1 4/1/1 5/1/1
f 9/2/1 8/2/1 7/2/1
f 10/2/1 8/2/1 9/2/1
f 13/6/1 12/6/1 11/6/1
f 14/6/1 12/6/1 13/6/1
f 17/1/1 16/1/1 15/1/1
f 18/1/1 16/1/1 17/1/1
f 21/6/1 20/6/1 19/6/1
f 22/6/1 20/6/1 21/6/1
f 25/6/1 24/6/1 23/6/1
f 26/6/1 24/6/1 25/6/1
f 27/2/2 28/2/2 29/2/2
f 29/2/2 28/2/2 30/2/2
f 31/3/2 32/3/2 33/3/2
f 33/3/2 32/3/2 34/3/2
f 33/1/2 34/1/2 35/1/2
f 35/1/2 34/1/2 36/1/2
f 35/2/2 36/2/2 37/2/2
f 37/2/2 36/2/2 38/2/2
f 37/4/2 38/4/2 39/4/2
f 39/4/2 38/4/2 40/4/2
f 41/5/2 42/5/2 43/5/2
f 43/5/2 42/5/2 44/5/2
f 43/4/2 44/4/2 45/4/2
f 45/4/2 44/4/2 46/4/2
f 45/6/2 46/6/2 47/6/2
f 47/6/2 46/6/2 48/6/2
f 53/2/3 50/2/3 49/2/3
f 54/1/3 51/1/3 50/1/3
f 54/2/3 50/2/3 53/2/3
f 55/1/3 51/1/3 54/1/3
f 57/2/3 53/2/3 52/2/3
f 58/2/3 53/2/3 57/2/3
f 59/2/3 55/2/3 54/2/3
f 60/6/3 56/6/3 55/6/3
f 60/2/3 55/2/3 59/2/3
f 61/6/3 56/6/3 60/6/3
f 63/3/3 58/3/3 57/3/3
f 64/1/3 59/1/3 58/1/3
f 64/3/3 58/3/3 63/3/3
f 65/2/3 60/2/3 59/2/3
f 65/1/3 59/1/3 64/1/3
f 66/4/3 61/4/3 60/4/3
f 66/2/3 60/2/3 65/2/3
f 67/4/3 61/4/3 66/4/3
f 68/4/3 61/4/3 67/4/3
f 69/6/3 62/6/3 61/6/3
f 69/4/3 61/4/3 68/4/3
f 70/6/3 62/6/3 69/6/3
f 72/5/3 68/5/3 67/5/3
f 73/4/3 70/4/3 69/4/3
f 73/5/3 68/5/3 72/5/3
f 73/4/3 69/4/3 68/4/3
f 74/6/3 71/6/3 70/6/3
f 74/4/3 70/4/3 73/4/3
f 75/6/3 71/6/3 74/6/3
f 76/2/4 77/2/4 80/2/4
f 77/1/4 78/1/4 81/1/4
f 80/2/4 77/2/4 81/2/4
f 81/1/4 78/1/4 82/1/4
f 79/2/4 80/2/4 84/2/4
f 84/2/4 80/2/4 85/2/4
f 81/2/4 82/2/4 86/2/4
f 82/6/4 83/6/4 87/6/4
f 86/2/4 82/2/4 87/2/4
f 87/6/4 83/6/4 88/6/4
f 84/3/4 85/3/4 90/3/4
f 85/1/4 86/1/4 91/1/4
f 90/3/4 85/3/4 91/3/4
f 86/2/4 87/2/4 92/2/4
f 91/1/4 86/1/4 92/1/4
f 87/4/4 88/4/4 93/4/4
f 92/2/4 87/2/4 93/2/4
f 93/4/4 88/4/4 94/4/4
f 94/4/4 88/4/4 95/4/4
f 88/6/4 89/6/4 96/6/4
f 95/4/4 88/4/4 96/4/4
f 96/6/4 89/6/4 97/6/4
f 94/5/4 95/5/4 99/5/4
f 96/4/4 97/4/4 100/4/4
f 99/5/4 95/5/4 100/5/4
f 95/4/4 96/4/4 100/4/4
f 97/6/4 98/6/4 101/6/4
f 100/4/4 97/4/4 101/4/4
f 101/6/4 98/6/4 102/6/4
f 106/2/5 104/2/5 103/2/5
f 107/3/5 105/3/5 104/3/5
f 107/2/5 104/2/5 106/2/5
f 108/3/5 105/3/5 107/3/5
f 111/2/5 110/2/5 109/2/5
f 112/2/5 110/2/5 111/2/5
f 115/2/5 114/2/5 113/2/5
f 116/2/5 114/2/5 115/2/5
f 119/5/5 118/5/5 117/5/5
f 120/5/5 118/5/5 119/5/5
f 121/2/6 122/2/6 123/2/6
f 123/2/6 122/2/6 124/2/6
f 125/1/6 126/1/6 127/1/6
f 127/1/6 126/1/6 128/1/6
f 129/6/6 130/6/6 131/6/6
f 131/6/6 130/6/6 132/6/6
f 133/6/6 134/6/6 135/6/6
f 135/6/6 134/6/6 136/6/6
f 137/6/6 138/6/6 139/6/6
f 139/6/6 138/6/6 140/6/6
