# MagicaVoxel @ Ephtracy

# group
o 

# material
mtllib Voxel RPG Weapons-24.mtl
usemtl palette

# normals
vn -1 0 0
vn 1 0 0
vn 0 0 1
vn 0 0 -1
vn 0 -1 0
vn 0 1 0

# texcoords
vt 0.220703 0.5
vt 0.306641 0.5
vt 0.482422 0.5
vt 0.923828 0.5
vt 0.931641 0.5
vt 0.962891 0.5

# verts
v -1.6 3.9 -0.7
v -1.6 3.9 -1
v -1.6 4 -0.7
v -1.6 4 -1
v -1.5 4 -0.8
v -1.5 4 -0.9
v -1.5 5 -0.8
v -1.5 5 -0.9
v -1.4 3.5 -0.8
v -1.4 3.5 -0.9
v -1.4 3.6 -0.8
v -1.4 3.6 -0.9
v -1.4 3.8 -0.8
v -1.4 3.8 -0.9
v -1.4 3.9 -0.8
v -1.4 3.9 -0.9
v -1.4 5 -0.8
v -1.4 5 -0.9
v -1.4 5.1 -0.8
v -1.4 5.1 -0.9
v -1.3 3.5 -0.8
v -1.3 3.5 -0.9
v -1.3 3.6 -0.8
v -1.3 3.6 -0.9
v -1.3 3.8 -0.8
v -1.3 3.8 -0.9
v -1.3 3.9 -0.8
v -1.3 3.9 -0.9
v -1.3 5 -0.8
v -1.3 5 -0.9
v -1.3 5.1 -0.8
v -1.3 5.1 -0.9
v -1.2 4 -0.8
v -1.2 4 -0.9
v -1.2 5 -0.8
v -1.2 5 -0.9
v -1.1 3.9 -0.7
v -1.1 3.9 -1
v -1.1 4 -0.7
v -1.1 4 -1
v -1.6 3.9 -0.7
v -1.6 4 -0.7
v -1.1 3.9 -0.7
v -1.1 4 -0.7
v -1.5 4 -0.8
v -1.5 5 -0.8
v -1.4 3.5 -0.8
v -1.4 3.6 -0.8
v -1.4 3.8 -0.8
v -1.4 3.9 -0.8
v -1.4 4 -0.8
v -1.4 4.1 -0.8
v -1.4 4.9 -0.8
v -1.4 5 -0.8
v -1.4 5.1 -0.8
v -1.3 3.5 -0.8
v -1.3 3.6 -0.8
v -1.3 3.8 -0.8
v -1.3 3.9 -0.8
v -1.3 4.1 -0.8
v -1.3 4.9 -0.8
v -1.3 5 -0.8
v -1.3 5.1 -0.8
v -1.2 4 -0.8
v -1.2 5 -0.8
v -1.5 4 -0.9
v -1.5 5 -0.9
v -1.4 3.5 -0.9
v -1.4 3.6 -0.9
v -1.4 3.8 -0.9
v -1.4 3.9 -0.9
v -1.4 4 -0.9
v -1.4 4.1 -0.9
v -1.4 4.9 -0.9
v -1.4 5 -0.9
v -1.4 5.1 -0.9
v -1.3 3.5 -0.9
v -1.3 3.6 -0.9
v -1.3 3.8 -0.9
v -1.3 3.9 -0.9
v -1.3 4.1 -0.9
v -1.3 4.9 -0.9
v -1.3 5 -0.9
v -1.3 5.1 -0.9
v -1.2 4 -0.9
v -1.2 5 -0.9
v -1.6 3.9 -1
v -1.6 4 -1
v -1.1 3.9 -1
v -1.1 4 -1
v -1.4 3.5 -0.8
v -1.3 3.5 -0.8
v -1.4 3.5 -0.9
v -1.3 3.5 -0.9
v -1.6 3.9 -0.7
v -1.1 3.9 -0.7
v -1.5 3.9 -0.8
v -1.4 3.9 -0.8
v -1.3 3.9 -0.8
v -1.2 3.9 -0.8
v -1.5 3.9 -0.9
v -1.4 3.9 -0.9
v -1.3 3.9 -0.9
v -1.2 3.9 -0.9
v -1.6 3.9 -1
v -1.1 3.9 -1
v -1.6 4 -0.7
v -1.1 4 -0.7
v -1.5 4 -0.8
v -1.4 4 -0.8
v -1.2 4 -0.8
v -1.5 4 -0.9
v -1.4 4 -0.9
v -1.2 4 -0.9
v -1.6 4 -1
v -1.1 4 -1
v -1.5 5 -0.8
v -1.4 5 -0.8
v -1.3 5 -0.8
v -1.2 5 -0.8
v -1.5 5 -0.9
v -1.4 5 -0.9
v -1.3 5 -0.9
v -1.2 5 -0.9
v -1.4 5.1 -0.8
v -1.3 5.1 -0.8
v -1.4 5.1 -0.9
v -1.3 5.1 -0.9

# faces
f 3/2/1 2/2/1 1/2/1
f 4/2/1 2/2/1 3/2/1
f 7/6/1 6/6/1 5/6/1
f 8/6/1 6/6/1 7/6/1
f 11/3/1 10/3/1 9/3/1
f 12/3/1 10/3/1 11/3/1
f 13/2/1 12/2/1 11/2/1
f 14/2/1 12/2/1 13/2/1
f 15/1/1 14/1/1 13/1/1
f 16/1/1 14/1/1 15/1/1
f 19/6/1 18/6/1 17/6/1
f 20/6/1 18/6/1 19/6/1
f 21/3/2 22/3/2 23/3/2
f 23/3/2 22/3/2 24/3/2
f 23/2/2 24/2/2 25/2/2
f 25/2/2 24/2/2 26/2/2
f 25/1/2 26/1/2 27/1/2
f 27/1/2 26/1/2 28/1/2
f 29/6/2 30/6/2 31/6/2
f 31/6/2 30/6/2 32/6/2
f 33/4/2 34/4/2 35/4/2
f 35/4/2 34/4/2 36/4/2
f 37/2/2 38/2/2 39/2/2
f 39/2/2 38/2/2 40/2/2
f 43/2/3 42/2/3 41/2/3
f 44/2/3 42/2/3 43/2/3
f 51/6/3 46/6/3 45/6/3
f 52/6/3 46/6/3 51/6/3
f 53/6/3 46/6/3 52/6/3
f 54/6/3 46/6/3 53/6/3
f 56/3/3 48/3/3 47/3/3
f 57/2/3 49/2/3 48/2/3
f 57/3/3 48/3/3 56/3/3
f 58/1/3 50/1/3 49/1/3
f 58/2/3 49/2/3 57/2/3
f 59/1/3 50/1/3 58/1/3
f 60/4/3 52/4/3 51/4/3
f 60/5/3 53/5/3 52/5/3
f 61/4/3 54/4/3 53/4/3
f 61/5/3 53/5/3 60/5/3
f 62/6/3 55/6/3 54/6/3
f 62/4/3 54/4/3 61/4/3
f 63/6/3 55/6/3 62/6/3
f 64/4/3 61/4/3 60/4/3
f 64/4/3 62/4/3 61/4/3
f 64/4/3 60/4/3 51/4/3
f 65/4/3 62/4/3 64/4/3
f 66/6/4 67/6/4 72/6/4
f 72/6/4 67/6/4 73/6/4
f 73/6/4 67/6/4 74/6/4
f 74/6/4 67/6/4 75/6/4
f 68/3/4 69/3/4 77/3/4
f 69/2/4 70/2/4 78/2/4
f 77/3/4 69/3/4 78/3/4
f 70/1/4 71/1/4 79/1/4
f 78/2/4 70/2/4 79/2/4
f 79/1/4 71/1/4 80/1/4
f 72/4/4 73/4/4 81/4/4
f 73/5/4 74/5/4 81/5/4
f 74/4/4 75/4/4 82/4/4
f 81/5/4 74/5/4 82/5/4
f 75/6/4 76/6/4 83/6/4
f 82/4/4 75/4/4 83/4/4
f 83/6/4 76/6/4 84/6/4
f 81/4/4 82/4/4 85/4/4
f 82/4/4 83/4/4 85/4/4
f 72/4/4 81/4/4 85/4/4
f 85/4/4 83/4/4 86/4/4
f 87/2/4 88/2/4 89/2/4
f 89/2/4 88/2/4 90/2/4
f 93/3/5 92/3/5 91/3/5
f 94/3/5 92/3/5 93/3/5
f 97/2/5 96/2/5 95/2/5
f 98/2/5 96/2/5 97/2/5
f 99/2/5 96/2/5 98/2/5
f 100/2/5 96/2/5 99/2/5
f 101/2/5 97/2/5 95/2/5
f 101/1/5 98/1/5 97/1/5
f 102/1/5 98/1/5 101/1/5
f 103/1/5 100/1/5 99/1/5
f 104/2/5 96/2/5 100/2/5
f 104/1/5 100/1/5 103/1/5
f 105/2/5 103/2/5 102/2/5
f 105/2/5 102/2/5 101/2/5
f 105/2/5 104/2/5 103/2/5
f 105/2/5 101/2/5 95/2/5
f 106/2/5 96/2/5 104/2/5
f 106/2/5 104/2/5 105/2/5
f 107/2/6 108/2/6 109/2/6
f 109/2/6 108/2/6 110/2/6
f 110/2/6 108/2/6 111/2/6
f 107/2/6 109/2/6 112/2/6
f 111/2/6 108/2/6 114/2/6
f 112/2/6 113/2/6 115/2/6
f 113/2/6 114/2/6 115/2/6
f 107/2/6 112/2/6 115/2/6
f 114/2/6 108/2/6 116/2/6
f 115/2/6 114/2/6 116/2/6
f 117/6/6 118/6/6 121/6/6
f 121/6/6 118/6/6 122/6/6
f 119/4/6 120/4/6 123/4/6
f 123/4/6 120/4/6 124/4/6
f 125/6/6 126/6/6 127/6/6
f 127/6/6 126/6/6 128/6/6
