# MagicaVoxel @ Ephtracy

# group
o 

# material
mtllib Voxel RPG Weapons-16.mtl
usemtl palette

# normals
vn -1 0 0
vn 1 0 0
vn 0 0 1
vn 0 0 -1
vn 0 -1 0
vn 0 1 0

# texcoords
vt 0.220703 0.5
vt 0.306641 0.5
vt 0.482422 0.5
vt 0.923828 0.5
vt 0.931641 0.5

# verts
v -1.1 2.8 0
v -1.1 2.8 -0.5
v -1.1 3.3 0
v -1.1 3.3 -0.5
v -0.8 1.8 -0.2
v -0.8 1.8 -0.3
v -0.8 1.9 -0.2
v -0.8 1.9 -0.3
v -0.8 2 -0.2
v -0.8 2 -0.3
v -0.8 2.2 -0.2
v -0.8 2.2 -0.3
v -0.8 2.6 -0.2
v -0.8 2.6 -0.3
v -0.8 2.9 -0.2
v -0.8 2.9 -0.3
v -0.8 3.2 -0.2
v -0.8 3.2 -0.3
v -0.8 3.3 -0.2
v -0.8 3.3 -0.3
v -0.5 2.8 0
v -0.5 2.8 -0.5
v -0.5 2.9 -0.1
v -0.5 2.9 -0.4
v -0.5 3.2 -0.1
v -0.5 3.2 -0.4
v -0.5 3.3 0
v -0.5 3.3 -0.5
v -1 2.8 0
v -1 2.8 -0.5
v -1 2.9 -0.1
v -1 2.9 -0.4
v -1 3.2 -0.1
v -1 3.2 -0.4
v -1 3.3 0
v -1 3.3 -0.5
v -0.7 1.8 -0.2
v -0.7 1.8 -0.3
v -0.7 1.9 -0.2
v -0.7 1.9 -0.3
v -0.7 2 -0.2
v -0.7 2 -0.3
v -0.7 2.2 -0.2
v -0.7 2.2 -0.3
v -0.7 2.6 -0.2
v -0.7 2.6 -0.3
v -0.7 2.9 -0.2
v -0.7 2.9 -0.3
v -0.7 3.2 -0.2
v -0.7 3.2 -0.3
v -0.7 3.3 -0.2
v -0.7 3.3 -0.3
v -0.4 2.8 0
v -0.4 2.8 -0.5
v -0.4 3.3 0
v -0.4 3.3 -0.5
v -1.1 2.8 0
v -1.1 3.3 0
v -1 2.8 0
v -1 3.3 0
v -0.5 2.8 0
v -0.5 3.3 0
v -0.4 2.8 0
v -0.4 3.3 0
v -1 2.9 -0.1
v -1 3.2 -0.1
v -0.9 3 -0.1
v -0.9 3.1 -0.1
v -0.8 3 -0.1
v -0.8 3.1 -0.1
v -0.7 3 -0.1
v -0.7 3.1 -0.1
v -0.6 3 -0.1
v -0.6 3.1 -0.1
v -0.5 2.9 -0.1
v -0.5 3.2 -0.1
v -0.8 1.8 -0.2
v -0.8 1.9 -0.2
v -0.8 2 -0.2
v -0.8 2.2 -0.2
v -0.8 2.6 -0.2
v -0.8 2.9 -0.2
v -0.8 3.2 -0.2
v -0.8 3.3 -0.2
v -0.7 1.8 -0.2
v -0.7 1.9 -0.2
v -0.7 2 -0.2
v -0.7 2.2 -0.2
v -0.7 2.6 -0.2
v -0.7 2.9 -0.2
v -0.7 3.2 -0.2
v -0.7 3.3 -0.2
v -0.8 1.8 -0.3
v -0.8 1.9 -0.3
v -0.8 2 -0.3
v -0.8 2.2 -0.3
v -0.8 2.6 -0.3
v -0.8 2.9 -0.3
v -0.8 3.2 -0.3
v -0.8 3.3 -0.3
v -0.7 1.8 -0.3
v -0.7 1.9 -0.3
v -0.7 2 -0.3
v -0.7 2.2 -0.3
v -0.7 2.6 -0.3
v -0.7 2.9 -0.3
v -0.7 3.2 -0.3
v -0.7 3.3 -0.3
v -1 2.9 -0.4
v -1 3.2 -0.4
v -0.9 3 -0.4
v -0.9 3.1 -0.4
v -0.8 3 -0.4
v -0.8 3.1 -0.4
v -0.7 3 -0.4
v -0.7 3.1 -0.4
v -0.6 3 -0.4
v -0.6 3.1 -0.4
v -0.5 2.9 -0.4
v -0.5 3.2 -0.4
v -1.1 2.8 -0.5
v -1.1 3.3 -0.5
v -1 2.8 -0.5
v -1 3.3 -0.5
v -0.5 2.8 -0.5
v -0.5 3.3 -0.5
v -0.4 2.8 -0.5
v -0.4 3.3 -0.5
v -0.8 1.8 -0.2
v -0.7 1.8 -0.2
v -0.8 1.8 -0.3
v -0.7 1.8 -0.3
v -1.1 2.8 0
v -1 2.8 0
v -0.5 2.8 0
v -0.4 2.8 0
v -1.1 2.8 -0.5
v -1 2.8 -0.5
v -0.5 2.8 -0.5
v -0.4 2.8 -0.5
v -1 2.9 -0.1
v -0.5 2.9 -0.1
v -0.8 2.9 -0.2
v -0.7 2.9 -0.2
v -0.8 2.9 -0.3
v -0.7 2.9 -0.3
v -1 2.9 -0.4
v -0.5 2.9 -0.4
v -1 3.2 -0.1
v -0.5 3.2 -0.1
v -0.8 3.2 -0.2
v -0.7 3.2 -0.2
v -0.8 3.2 -0.3
v -0.7 3.2 -0.3
v -1 3.2 -0.4
v -0.5 3.2 -0.4
v -1.1 3.3 0
v -1 3.3 0
v -0.5 3.3 0
v -0.4 3.3 0
v -0.8 3.3 -0.2
v -0.7 3.3 -0.2
v -0.8 3.3 -0.3
v -0.7 3.3 -0.3
v -1.1 3.3 -0.5
v -1 3.3 -0.5
v -0.5 3.3 -0.5
v -0.4 3.3 -0.5

# faces
f 3/4/1 2/4/1 1/4/1
f 4/4/1 2/4/1 3/4/1
f 7/3/1 6/3/1 5/3/1
f 8/3/1 6/3/1 7/3/1
f 9/2/1 8/2/1 7/2/1
f 10/2/1 8/2/1 9/2/1
f 11/1/1 10/1/1 9/1/1
f 12/1/1 10/1/1 11/1/1
f 13/2/1 12/2/1 11/2/1
f 14/2/1 12/2/1 13/2/1
f 15/1/1 14/1/1 13/1/1
f 16/1/1 14/1/1 15/1/1
f 19/1/1 18/1/1 17/1/1
f 20/1/1 18/1/1 19/1/1
f 23/4/1 22/4/1 21/4/1
f 24/4/1 22/4/1 23/4/1
f 25/4/1 23/4/1 21/4/1
f 26/4/1 22/4/1 24/4/1
f 27/4/1 25/4/1 21/4/1
f 27/4/1 26/4/1 25/4/1
f 28/4/1 22/4/1 26/4/1
f 28/4/1 26/4/1 27/4/1
f 29/4/2 30/4/2 31/4/2
f 31/4/2 30/4/2 32/4/2
f 29/4/2 31/4/2 33/4/2
f 32/4/2 30/4/2 34/4/2
f 29/4/2 33/4/2 35/4/2
f 33/4/2 34/4/2 35/4/2
f 34/4/2 30/4/2 36/4/2
f 35/4/2 34/4/2 36/4/2
f 37/3/2 38/3/2 39/3/2
f 39/3/2 38/3/2 40/3/2
f 39/2/2 40/2/2 41/2/2
f 41/2/2 40/2/2 42/2/2
f 41/1/2 42/1/2 43/1/2
f 43/1/2 42/1/2 44/1/2
f 43/2/2 44/2/2 45/2/2
f 45/2/2 44/2/2 46/2/2
f 45/1/2 46/1/2 47/1/2
f 47/1/2 46/1/2 48/1/2
f 49/1/2 50/1/2 51/1/2
f 51/1/2 50/1/2 52/1/2
f 53/4/2 54/4/2 55/4/2
f 55/4/2 54/4/2 56/4/2
f 59/4/3 58/4/3 57/4/3
f 60/4/3 58/4/3 59/4/3
f 63/4/3 62/4/3 61/4/3
f 64/4/3 62/4/3 63/4/3
f 67/5/3 66/5/3 65/5/3
f 68/5/3 66/5/3 67/5/3
f 69/5/3 67/5/3 65/5/3
f 69/4/3 68/4/3 67/4/3
f 70/5/3 66/5/3 68/5/3
f 70/4/3 68/4/3 69/4/3
f 71/5/3 69/5/3 65/5/3
f 71/5/3 70/5/3 69/5/3
f 72/5/3 66/5/3 70/5/3
f 72/5/3 70/5/3 71/5/3
f 73/5/3 71/5/3 65/5/3
f 73/4/3 72/4/3 71/4/3
f 74/5/3 66/5/3 72/5/3
f 74/4/3 72/4/3 73/4/3
f 75/5/3 73/5/3 65/5/3
f 75/5/3 74/5/3 73/5/3
f 76/5/3 66/5/3 74/5/3
f 76/5/3 74/5/3 75/5/3
f 85/3/3 78/3/3 77/3/3
f 86/2/3 79/2/3 78/2/3
f 86/3/3 78/3/3 85/3/3
f 87/1/3 80/1/3 79/1/3
f 87/2/3 79/2/3 86/2/3
f 88/2/3 81/2/3 80/2/3
f 88/1/3 80/1/3 87/1/3
f 89/1/3 82/1/3 81/1/3
f 89/2/3 81/2/3 88/2/3
f 90/1/3 82/1/3 89/1/3
f 91/1/3 84/1/3 83/1/3
f 92/1/3 84/1/3 91/1/3
f 93/3/4 94/3/4 101/3/4
f 94/2/4 95/2/4 102/2/4
f 101/3/4 94/3/4 102/3/4
f 95/1/4 96/1/4 103/1/4
f 102/2/4 95/2/4 103/2/4
f 96/2/4 97/2/4 104/2/4
f 103/1/4 96/1/4 104/1/4
f 97/1/4 98/1/4 105/1/4
f 104/2/4 97/2/4 105/2/4
f 105/1/4 98/1/4 106/1/4
f 99/1/4 100/1/4 107/1/4
f 107/1/4 100/1/4 108/1/4
f 109/5/4 110/5/4 111/5/4
f 111/5/4 110/5/4 112/5/4
f 109/5/4 111/5/4 113/5/4
f 111/4/4 112/4/4 113/4/4
f 112/5/4 110/5/4 114/5/4
f 113/4/4 112/4/4 114/4/4
f 109/5/4 113/5/4 115/5/4
f 113/5/4 114/5/4 115/5/4
f 114/5/4 110/5/4 116/5/4
f 115/5/4 114/5/4 116/5/4
f 109/5/4 115/5/4 117/5/4
f 115/4/4 116/4/4 117/4/4
f 116/5/4 110/5/4 118/5/4
f 117/4/4 116/4/4 118/4/4
f 109/5/4 117/5/4 119/5/4
f 117/5/4 118/5/4 119/5/4
f 118/5/4 110/5/4 120/5/4
f 119/5/4 118/5/4 120/5/4
f 121/4/4 122/4/4 123/4/4
f 123/4/4 122/4/4 124/4/4
f 125/4/4 126/4/4 127/4/4
f 127/4/4 126/4/4 128/4/4
f 131/3/5 130/3/5 129/3/5
f 132/3/5 130/3/5 131/3/5
f 137/4/5 134/4/5 133/4/5
f 138/4/5 134/4/5 137/4/5
f 139/4/5 136/4/5 135/4/5
f 140/4/5 136/4/5 139/4/5
f 143/5/5 142/5/5 141/5/5
f 144/5/5 142/5/5 143/5/5
f 145/5/5 143/5/5 141/5/5
f 146/5/5 142/5/5 144/5/5
f 147/5/5 145/5/5 141/5/5
f 147/5/5 146/5/5 145/5/5
f 148/5/5 142/5/5 146/5/5
f 148/5/5 146/5/5 147/5/5
f 149/5/6 150/5/6 151/5/6
f 151/5/6 150/5/6 152/5/6
f 149/5/6 151/5/6 153/5/6
f 152/5/6 150/5/6 154/5/6
f 149/5/6 153/5/6 155/5/6
f 153/5/6 154/5/6 155/5/6
f 154/5/6 150/5/6 156/5/6
f 155/5/6 154/5/6 156/5/6
f 161/1/6 162/1/6 163/1/6
f 163/1/6 162/1/6 164/1/6
f 157/4/6 158/4/6 165/4/6
f 165/4/6 158/4/6 166/4/6
f 159/4/6 160/4/6 167/4/6
f 167/4/6 160/4/6 168/4/6
