# MagicaVoxel @ Ephtracy

# group
o 

# material
mtllib Voxel RPG Weapons-25.mtl
usemtl palette

# normals
vn -1 0 0
vn 1 0 0
vn 0 0 1
vn 0 0 -1
vn 0 -1 0
vn 0 1 0

# texcoords
vt 0.220703 0.5
vt 0.306641 0.5
vt 0.923828 0.5
vt 0.962891 0.5

# verts
v -2.9 3.6 -0.8
v -2.9 3.6 -0.9
v -2.9 4.7 -0.8
v -2.9 4.7 -0.9
v -2.8 3.5 -0.8
v -2.8 3.5 -0.9
v -2.8 3.6 -0.8
v -2.8 3.6 -0.9
v -2.8 4.7 -0.8
v -2.8 4.7 -0.9
v -2.8 4.8 -0.8
v -2.8 4.8 -0.9
v -2.7 3.8 -0.9
v -2.7 3.8 -1
v -2.7 4.5 -0.9
v -2.7 4.5 -1
v -2.6 4 -0.7
v -2.6 4 -0.8
v -2.6 4.3 -0.7
v -2.6 4.3 -0.8
v -2.4 3.8 -0.9
v -2.4 3.8 -1
v -2.4 3.9 -0.9
v -2.4 4.4 -0.9
v -2.4 4.5 -0.9
v -2.4 4.5 -1
v -2.6 3.8 -0.9
v -2.6 3.8 -1
v -2.6 3.9 -0.9
v -2.6 4.4 -0.9
v -2.6 4.5 -0.9
v -2.6 4.5 -1
v -2.4 4 -0.7
v -2.4 4 -0.8
v -2.4 4.3 -0.7
v -2.4 4.3 -0.8
v -2.3 3.8 -0.9
v -2.3 3.8 -1
v -2.3 4.5 -0.9
v -2.3 4.5 -1
v -2.2 3.5 -0.8
v -2.2 3.5 -0.9
v -2.2 3.6 -0.8
v -2.2 3.6 -0.9
v -2.2 4.7 -0.8
v -2.2 4.7 -0.9
v -2.2 4.8 -0.8
v -2.2 4.8 -0.9
v -2.1 3.6 -0.8
v -2.1 3.6 -0.9
v -2.1 4.7 -0.8
v -2.1 4.7 -0.9
v -2.6 4 -0.7
v -2.6 4.3 -0.7
v -2.4 4 -0.7
v -2.4 4.3 -0.7
v -2.9 3.6 -0.8
v -2.9 4.7 -0.8
v -2.8 3.5 -0.8
v -2.8 3.6 -0.8
v -2.8 4.7 -0.8
v -2.8 4.8 -0.8
v -2.7 3.5 -0.8
v -2.7 3.9 -0.8
v -2.7 4 -0.8
v -2.7 4.3 -0.8
v -2.7 4.4 -0.8
v -2.7 4.8 -0.8
v -2.6 3.5 -0.8
v -2.6 3.9 -0.8
v -2.6 4 -0.8
v -2.6 4.3 -0.8
v -2.6 4.4 -0.8
v -2.6 4.8 -0.8
v -2.4 3.5 -0.8
v -2.4 3.9 -0.8
v -2.4 4 -0.8
v -2.4 4.3 -0.8
v -2.4 4.4 -0.8
v -2.4 4.8 -0.8
v -2.3 3.5 -0.8
v -2.3 3.9 -0.8
v -2.3 4 -0.8
v -2.3 4.3 -0.8
v -2.3 4.4 -0.8
v -2.3 4.8 -0.8
v -2.2 3.5 -0.8
v -2.2 3.6 -0.8
v -2.2 4.7 -0.8
v -2.2 4.8 -0.8
v -2.1 3.6 -0.8
v -2.1 4.7 -0.8
v -2.9 3.6 -0.9
v -2.9 4.7 -0.9
v -2.8 3.5 -0.9
v -2.8 3.6 -0.9
v -2.8 4.7 -0.9
v -2.8 4.8 -0.9
v -2.7 3.5 -0.9
v -2.7 3.8 -0.9
v -2.7 4.5 -0.9
v -2.7 4.8 -0.9
v -2.6 3.5 -0.9
v -2.6 3.8 -0.9
v -2.6 3.9 -0.9
v -2.6 4.4 -0.9
v -2.6 4.5 -0.9
v -2.6 4.8 -0.9
v -2.4 3.5 -0.9
v -2.4 3.8 -0.9
v -2.4 3.9 -0.9
v -2.4 4.4 -0.9
v -2.4 4.5 -0.9
v -2.4 4.8 -0.9
v -2.3 3.5 -0.9
v -2.3 3.8 -0.9
v -2.3 4.5 -0.9
v -2.3 4.8 -0.9
v -2.2 3.5 -0.9
v -2.2 3.6 -0.9
v -2.2 4.7 -0.9
v -2.2 4.8 -0.9
v -2.1 3.6 -0.9
v -2.1 4.7 -0.9
v -2.7 3.8 -1
v -2.7 4.5 -1
v -2.6 3.8 -1
v -2.6 4.5 -1
v -2.4 3.8 -1
v -2.4 4.5 -1
v -2.3 3.8 -1
v -2.3 4.5 -1
v -2.8 3.5 -0.8
v -2.7 3.5 -0.8
v -2.6 3.5 -0.8
v -2.4 3.5 -0.8
v -2.3 3.5 -0.8
v -2.2 3.5 -0.8
v -2.8 3.5 -0.9
v -2.7 3.5 -0.9
v -2.6 3.5 -0.9
v -2.4 3.5 -0.9
v -2.3 3.5 -0.9
v -2.2 3.5 -0.9
v -2.9 3.6 -0.8
v -2.8 3.6 -0.8
v -2.2 3.6 -0.8
v -2.1 3.6 -0.8
v -2.9 3.6 -0.9
v -2.8 3.6 -0.9
v -2.2 3.6 -0.9
v -2.1 3.6 -0.9
v -2.7 3.8 -0.9
v -2.6 3.8 -0.9
v -2.4 3.8 -0.9
v -2.3 3.8 -0.9
v -2.7 3.8 -1
v -2.6 3.8 -1
v -2.4 3.8 -1
v -2.3 3.8 -1
v -2.6 4 -0.7
v -2.4 4 -0.7
v -2.6 4 -0.8
v -2.4 4 -0.8
v -2.6 4.3 -0.7
v -2.4 4.3 -0.7
v -2.6 4.3 -0.8
v -2.4 4.3 -0.8
v -2.7 4.5 -0.9
v -2.6 4.5 -0.9
v -2.4 4.5 -0.9
v -2.3 4.5 -0.9
v -2.7 4.5 -1
v -2.6 4.5 -1
v -2.4 4.5 -1
v -2.3 4.5 -1
v -2.9 4.7 -0.8
v -2.8 4.7 -0.8
v -2.2 4.7 -0.8
v -2.1 4.7 -0.8
v -2.9 4.7 -0.9
v -2.8 4.7 -0.9
v -2.2 4.7 -0.9
v -2.1 4.7 -0.9
v -2.8 4.8 -0.8
v -2.7 4.8 -0.8
v -2.6 4.8 -0.8
v -2.4 4.8 -0.8
v -2.3 4.8 -0.8
v -2.2 4.8 -0.8
v -2.8 4.8 -0.9
v -2.7 4.8 -0.9
v -2.6 4.8 -0.9
v -2.4 4.8 -0.9
v -2.3 4.8 -0.9
v -2.2 4.8 -0.9

# faces
f 3/2/1 2/2/1 1/2/1
f 4/2/1 2/2/1 3/2/1
f 7/2/1 6/2/1 5/2/1
f 8/2/1 6/2/1 7/2/1
f 11/2/1 10/2/1 9/2/1
f 12/2/1 10/2/1 11/2/1
f 15/1/1 14/1/1 13/1/1
f 16/1/1 14/1/1 15/1/1
f 19/3/1 18/3/1 17/3/1
f 20/3/1 18/3/1 19/3/1
f 23/1/1 22/1/1 21/1/1
f 24/1/1 22/1/1 23/1/1
f 25/1/1 22/1/1 24/1/1
f 26/1/1 22/1/1 25/1/1
f 27/1/2 28/1/2 29/1/2
f 29/1/2 28/1/2 30/1/2
f 30/1/2 28/1/2 31/1/2
f 31/1/2 28/1/2 32/1/2
f 33/3/2 34/3/2 35/3/2
f 35/3/2 34/3/2 36/3/2
f 37/1/2 38/1/2 39/1/2
f 39/1/2 38/1/2 40/1/2
f 41/2/2 42/2/2 43/2/2
f 43/2/2 42/2/2 44/2/2
f 45/2/2 46/2/2 47/2/2
f 47/2/2 46/2/2 48/2/2
f 49/2/2 50/2/2 51/2/2
f 51/2/2 50/2/2 52/2/2
f 55/3/3 54/3/3 53/3/3
f 56/3/3 54/3/3 55/3/3
f 60/2/3 58/2/3 57/2/3
f 61/2/3 58/2/3 60/2/3
f 63/2/3 60/2/3 59/2/3
f 63/2/3 62/2/3 61/2/3
f 63/2/3 61/2/3 60/2/3
f 64/2/3 62/2/3 63/2/3
f 65/2/3 62/2/3 64/2/3
f 66/2/3 62/2/3 65/2/3
f 67/2/3 62/2/3 66/2/3
f 68/2/3 62/2/3 67/2/3
f 69/1/3 64/1/3 63/1/3
f 70/3/3 65/3/3 64/3/3
f 70/1/3 64/1/3 69/1/3
f 71/4/3 66/4/3 65/4/3
f 71/3/3 65/3/3 70/3/3
f 72/3/3 67/3/3 66/3/3
f 72/4/3 66/4/3 71/4/3
f 73/1/3 68/1/3 67/1/3
f 73/3/3 67/3/3 72/3/3
f 74/1/3 68/1/3 73/1/3
f 75/2/3 70/2/3 69/2/3
f 76/4/3 71/4/3 70/4/3
f 76/2/3 70/2/3 75/2/3
f 77/4/3 71/4/3 76/4/3
f 78/4/3 73/4/3 72/4/3
f 79/2/3 74/2/3 73/2/3
f 79/4/3 73/4/3 78/4/3
f 80/2/3 74/2/3 79/2/3
f 81/1/3 76/1/3 75/1/3
f 82/3/3 77/3/3 76/3/3
f 82/1/3 76/1/3 81/1/3
f 83/4/3 78/4/3 77/4/3
f 83/3/3 77/3/3 82/3/3
f 84/3/3 79/3/3 78/3/3
f 84/4/3 78/4/3 83/4/3
f 85/1/3 80/1/3 79/1/3
f 85/3/3 79/3/3 84/3/3
f 86/1/3 80/1/3 85/1/3
f 87/2/3 82/2/3 81/2/3
f 87/2/3 83/2/3 82/2/3
f 87/2/3 86/2/3 85/2/3
f 87/2/3 85/2/3 84/2/3
f 87/2/3 84/2/3 83/2/3
f 88/2/3 86/2/3 87/2/3
f 89/2/3 86/2/3 88/2/3
f 90/2/3 86/2/3 89/2/3
f 91/2/3 89/2/3 88/2/3
f 92/2/3 89/2/3 91/2/3
f 93/2/4 94/2/4 96/2/4
f 96/2/4 94/2/4 97/2/4
f 95/2/4 96/2/4 99/2/4
f 97/2/4 98/2/4 99/2/4
f 96/2/4 97/2/4 99/2/4
f 99/2/4 98/2/4 100/2/4
f 100/2/4 98/2/4 101/2/4
f 101/2/4 98/2/4 102/2/4
f 99/1/4 100/1/4 103/1/4
f 103/1/4 100/1/4 104/1/4
f 101/1/4 102/1/4 107/1/4
f 107/1/4 102/1/4 108/1/4
f 103/2/4 104/2/4 109/2/4
f 104/2/4 105/2/4 109/2/4
f 109/2/4 105/2/4 110/2/4
f 105/4/4 106/4/4 111/4/4
f 110/2/4 105/2/4 111/2/4
f 107/2/4 108/2/4 112/2/4
f 111/4/4 106/4/4 112/4/4
f 106/2/4 107/2/4 112/2/4
f 112/2/4 108/2/4 113/2/4
f 113/2/4 108/2/4 114/2/4
f 109/1/4 110/1/4 115/1/4
f 115/1/4 110/1/4 116/1/4
f 113/1/4 114/1/4 117/1/4
f 117/1/4 114/1/4 118/1/4
f 115/2/4 116/2/4 119/2/4
f 116/2/4 117/2/4 119/2/4
f 117/2/4 118/2/4 119/2/4
f 119/2/4 118/2/4 120/2/4
f 120/2/4 118/2/4 121/2/4
f 121/2/4 118/2/4 122/2/4
f 120/2/4 121/2/4 123/2/4
f 123/2/4 121/2/4 124/2/4
f 125/1/4 126/1/4 127/1/4
f 127/1/4 126/1/4 128/1/4
f 129/1/4 130/1/4 131/1/4
f 131/1/4 130/1/4 132/1/4
f 139/2/5 134/2/5 133/2/5
f 140/1/5 135/1/5 134/1/5
f 140/2/5 134/2/5 139/2/5
f 141/2/5 136/2/5 135/2/5
f 141/1/5 135/1/5 140/1/5
f 142/1/5 137/1/5 136/1/5
f 142/2/5 136/2/5 141/2/5
f 143/2/5 138/2/5 137/2/5
f 143/1/5 137/1/5 142/1/5
f 144/2/5 138/2/5 143/2/5
f 149/2/5 146/2/5 145/2/5
f 150/2/5 146/2/5 149/2/5
f 151/2/5 148/2/5 147/2/5
f 152/2/5 148/2/5 151/2/5
f 157/1/5 154/1/5 153/1/5
f 158/1/5 154/1/5 157/1/5
f 159/1/5 156/1/5 155/1/5
f 160/1/5 156/1/5 159/1/5
f 163/3/5 162/3/5 161/3/5
f 164/3/5 162/3/5 163/3/5
f 165/3/6 166/3/6 167/3/6
f 167/3/6 166/3/6 168/3/6
f 169/1/6 170/1/6 173/1/6
f 173/1/6 170/1/6 174/1/6
f 171/1/6 172/1/6 175/1/6
f 175/1/6 172/1/6 176/1/6
f 177/2/6 178/2/6 181/2/6
f 181/2/6 178/2/6 182/2/6
f 179/2/6 180/2/6 183/2/6
f 183/2/6 180/2/6 184/2/6
f 185/2/6 186/2/6 191/2/6
f 186/1/6 187/1/6 192/1/6
f 191/2/6 186/2/6 192/2/6
f 187/2/6 188/2/6 193/2/6
f 192/1/6 187/1/6 193/1/6
f 188/1/6 189/1/6 194/1/6
f 193/2/6 188/2/6 194/2/6
f 189/2/6 190/2/6 195/2/6
f 194/1/6 189/1/6 195/1/6
f 195/2/6 190/2/6 196/2/6
