# MagicaVoxel @ Ephtracy

# group
o 

# material
mtllib Voxel RPG Weapons-6.mtl
usemtl palette

# normals
vn -1 0 0
vn 1 0 0
vn 0 0 1
vn 0 0 -1
vn 0 -1 0
vn 0 1 0

# texcoords
vt 0.0136719 0.5
vt 0.0566406 0.5
vt 0.244141 0.5
vt 0.416016 0.5

# verts
v 0.7 0.1 0.6
v 0.7 0.1 0.3
v 0.7 0.9 0.6
v 0.7 0.9 0.3
v 1.2 0.1 0.6
v 1.2 0.1 0.5
v 1.2 0.1 0.4
v 1.2 0.1 0.3
v 1.2 0.2 0.6
v 1.2 0.2 0.5
v 1.2 0.2 0.4
v 1.2 0.2 0.3
v 1.2 0.3 0.6
v 1.2 0.3 0.5
v 1.2 0.3 0.4
v 1.2 0.3 0.3
v 1.2 0.7 0.6
v 1.2 0.7 0.5
v 1.2 0.7 0.4
v 1.2 0.7 0.3
v 1.2 0.8 0.6
v 1.2 0.8 0.5
v 1.2 0.8 0.4
v 1.2 0.8 0.3
v 1.2 0.9 0.6
v 1.2 0.9 0.5
v 1.2 0.9 0.4
v 1.2 0.9 0.3
v 0.7 0.1 0.6
v 0.7 0.9 0.6
v 0.8 0.1 0.6
v 0.8 0.9 0.6
v 0.9 0.1 0.6
v 0.9 0.9 0.6
v 1 0.2 0.6
v 1 0.3 0.6
v 1 0.7 0.6
v 1 0.8 0.6
v 1.1 0.1 0.6
v 1.1 0.2 0.6
v 1.1 0.8 0.6
v 1.1 0.9 0.6
v 1.2 0.1 0.6
v 1.2 0.2 0.6
v 1.2 0.3 0.6
v 1.2 0.7 0.6
v 1.2 0.8 0.6
v 1.2 0.9 0.6
v 0.7 0.1 0.3
v 0.7 0.9 0.3
v 0.8 0.1 0.3
v 0.8 0.9 0.3
v 0.9 0.1 0.3
v 0.9 0.9 0.3
v 1 0.2 0.3
v 1 0.3 0.3
v 1 0.7 0.3
v 1 0.8 0.3
v 1.1 0.1 0.3
v 1.1 0.2 0.3
v 1.1 0.8 0.3
v 1.1 0.9 0.3
v 1.2 0.1 0.3
v 1.2 0.2 0.3
v 1.2 0.3 0.3
v 1.2 0.7 0.3
v 1.2 0.8 0.3
v 1.2 0.9 0.3
v 0.7 0.1 0.6
v 0.8 0.1 0.6
v 0.9 0.1 0.6
v 1.1 0.1 0.6
v 1.2 0.1 0.6
v 0.8 0.1 0.5
v 0.9 0.1 0.5
v 1.1 0.1 0.5
v 1.2 0.1 0.5
v 0.8 0.1 0.4
v 0.9 0.1 0.4
v 1.1 0.1 0.4
v 1.2 0.1 0.4
v 0.7 0.1 0.3
v 0.8 0.1 0.3
v 0.9 0.1 0.3
v 1.1 0.1 0.3
v 1.2 0.1 0.3
v 0.7 0.9 0.6
v 0.8 0.9 0.6
v 0.9 0.9 0.6
v 1.1 0.9 0.6
v 1.2 0.9 0.6
v 0.8 0.9 0.5
v 0.9 0.9 0.5
v 1.1 0.9 0.5
v 1.2 0.9 0.5
v 0.8 0.9 0.4
v 0.9 0.9 0.4
v 1.1 0.9 0.4
v 1.2 0.9 0.4
v 0.7 0.9 0.3
v 0.8 0.9 0.3
v 0.9 0.9 0.3
v 1.1 0.9 0.3
v 1.2 0.9 0.3

# faces
f 3/2/1 2/2/1 1/2/1
f 4/2/1 2/2/1 3/2/1
f 5/1/2 6/1/2 9/1/2
f 6/4/2 7/4/2 10/4/2
f 9/1/2 6/1/2 10/1/2
f 7/1/2 8/1/2 11/1/2
f 10/4/2 7/4/2 11/4/2
f 11/1/2 8/1/2 12/1/2
f 9/3/2 10/3/2 13/3/2
f 10/3/2 11/3/2 13/3/2
f 11/3/2 12/3/2 13/3/2
f 13/3/2 12/3/2 14/3/2
f 14/3/2 12/3/2 15/3/2
f 15/3/2 12/3/2 16/3/2
f 13/2/2 14/2/2 17/2/2
f 14/4/2 15/4/2 18/4/2
f 17/2/2 14/2/2 18/2/2
f 15/2/2 16/2/2 19/2/2
f 18/4/2 15/4/2 19/4/2
f 19/2/2 16/2/2 20/2/2
f 17/3/2 18/3/2 21/3/2
f 18/3/2 19/3/2 21/3/2
f 19/3/2 20/3/2 21/3/2
f 21/3/2 20/3/2 22/3/2
f 22/3/2 20/3/2 23/3/2
f 23/3/2 20/3/2 24/3/2
f 21/1/2 22/1/2 25/1/2
f 22/4/2 23/4/2 26/4/2
f 25/1/2 22/1/2 26/1/2
f 23/1/2 24/1/2 27/1/2
f 26/4/2 23/4/2 27/4/2
f 27/1/2 24/1/2 28/1/2
f 31/2/3 30/2/3 29/2/3
f 32/2/3 30/2/3 31/2/3
f 33/1/3 32/1/3 31/1/3
f 34/1/3 32/1/3 33/1/3
f 35/2/3 34/2/3 33/2/3
f 36/2/3 34/2/3 35/2/3
f 37/2/3 34/2/3 36/2/3
f 38/2/3 34/2/3 37/2/3
f 39/2/3 35/2/3 33/2/3
f 40/3/3 36/3/3 35/3/3
f 40/2/3 35/2/3 39/2/3
f 41/2/3 34/2/3 38/2/3
f 41/3/3 38/3/3 37/3/3
f 42/2/3 34/2/3 41/2/3
f 43/1/3 40/1/3 39/1/3
f 44/3/3 36/3/3 40/3/3
f 44/1/3 40/1/3 43/1/3
f 45/2/3 37/2/3 36/2/3
f 45/3/3 36/3/3 44/3/3
f 46/3/3 41/3/3 37/3/3
f 46/2/3 37/2/3 45/2/3
f 47/1/3 42/1/3 41/1/3
f 47/3/3 41/3/3 46/3/3
f 48/1/3 42/1/3 47/1/3
f 49/2/4 50/2/4 51/2/4
f 51/2/4 50/2/4 52/2/4
f 51/1/4 52/1/4 53/1/4
f 53/1/4 52/1/4 54/1/4
f 53/2/4 54/2/4 55/2/4
f 55/2/4 54/2/4 56/2/4
f 56/2/4 54/2/4 57/2/4
f 57/2/4 54/2/4 58/2/4
f 53/2/4 55/2/4 59/2/4
f 55/3/4 56/3/4 60/3/4
f 59/2/4 55/2/4 60/2/4
f 58/2/4 54/2/4 61/2/4
f 57/3/4 58/3/4 61/3/4
f 61/2/4 54/2/4 62/2/4
f 59/1/4 60/1/4 63/1/4
f 60/3/4 56/3/4 64/3/4
f 63/1/4 60/1/4 64/1/4
f 56/2/4 57/2/4 65/2/4
f 64/3/4 56/3/4 65/3/4
f 57/3/4 61/3/4 66/3/4
f 65/2/4 57/2/4 66/2/4
f 61/1/4 62/1/4 67/1/4
f 66/3/4 61/3/4 67/3/4
f 67/1/4 62/1/4 68/1/4
f 74/2/5 70/2/5 69/2/5
f 74/1/5 71/1/5 70/1/5
f 75/2/5 72/2/5 71/2/5
f 75/1/5 71/1/5 74/1/5
f 76/1/5 73/1/5 72/1/5
f 76/2/5 72/2/5 75/2/5
f 77/1/5 73/1/5 76/1/5
f 78/3/5 75/3/5 74/3/5
f 78/2/5 74/2/5 69/2/5
f 79/4/5 77/4/5 76/4/5
f 79/3/5 75/3/5 78/3/5
f 79/4/5 76/4/5 75/4/5
f 80/4/5 77/4/5 79/4/5
f 81/4/5 77/4/5 80/4/5
f 82/2/5 78/2/5 69/2/5
f 83/1/5 79/1/5 78/1/5
f 83/2/5 78/2/5 82/2/5
f 84/2/5 80/2/5 79/2/5
f 84/1/5 79/1/5 83/1/5
f 85/1/5 81/1/5 80/1/5
f 85/2/5 80/2/5 84/2/5
f 86/1/5 81/1/5 85/1/5
f 87/2/6 88/2/6 92/2/6
f 88/1/6 89/1/6 92/1/6
f 89/2/6 90/2/6 93/2/6
f 92/1/6 89/1/6 93/1/6
f 90/1/6 91/1/6 94/1/6
f 93/2/6 90/2/6 94/2/6
f 94/1/6 91/1/6 95/1/6
f 92/3/6 93/3/6 96/3/6
f 87/2/6 92/2/6 96/2/6
f 94/4/6 95/4/6 97/4/6
f 96/3/6 93/3/6 97/3/6
f 93/4/6 94/4/6 97/4/6
f 97/4/6 95/4/6 98/4/6
f 98/4/6 95/4/6 99/4/6
f 87/2/6 96/2/6 100/2/6
f 96/1/6 97/1/6 101/1/6
f 100/2/6 96/2/6 101/2/6
f 97/2/6 98/2/6 102/2/6
f 101/1/6 97/1/6 102/1/6
f 98/1/6 99/1/6 103/1/6
f 102/2/6 98/2/6 103/2/6
f 103/1/6 99/1/6 104/1/6
