# MagicaVoxel @ Ephtracy

# group
o 

# material
mtllib Voxel RPG Weapons-0.mtl
usemtl palette

# normals
vn -1 0 0
vn 1 0 0
vn 0 0 1
vn 0 0 -1
vn 0 -1 0
vn 0 1 0

# texcoords
vt 0.330078 0.5
vt 0.716797 0.5
vt 0.771484 0.5
vt 0.775391 0.5
vt 0.912109 0.5
vt 0.919922 0.5

# verts
v -1.1 0.1 0.7
v -1.1 0.1 0.6
v -1.1 0.1 0.4
v -1.1 0.1 0.3
v -1.1 0.2 0.7
v -1.1 0.2 0.6
v -1.1 0.2 0.4
v -1.1 0.2 0.3
v -1.1 0.7 0.7
v -1.1 0.7 0.6
v -1.1 0.7 0.4
v -1.1 0.7 0.3
v -1.1 0.8 0.7
v -1.1 0.8 0.6
v -1.1 0.8 0.4
v -1.1 0.8 0.3
v -1.1 0.9 0.7
v -1.1 0.9 0.6
v -1.1 0.9 0.4
v -1.1 0.9 0.3
v -1 0.9 0.6
v -1 0.9 0.4
v -1 1.1 0.6
v -1 1.1 0.4
v -1 1.2 0.6
v -1 1.2 0.4
v -0.8 0.9 0.6
v -0.8 0.9 0.4
v -0.8 1.1 0.6
v -0.8 1.1 0.4
v -0.8 1.2 0.6
v -0.8 1.2 0.4
v -0.7 0.1 0.7
v -0.7 0.1 0.6
v -0.7 0.1 0.4
v -0.7 0.1 0.3
v -0.7 0.2 0.7
v -0.7 0.2 0.6
v -0.7 0.2 0.4
v -0.7 0.2 0.3
v -0.7 0.7 0.7
v -0.7 0.7 0.6
v -0.7 0.7 0.4
v -0.7 0.7 0.3
v -0.7 0.8 0.7
v -0.7 0.8 0.6
v -0.7 0.8 0.4
v -0.7 0.8 0.3
v -0.7 0.9 0.7
v -0.7 0.9 0.6
v -0.7 0.9 0.4
v -0.7 0.9 0.3
v -1.1 0.1 0.7
v -1.1 0.2 0.7
v -1.1 0.7 0.7
v -1.1 0.8 0.7
v -1.1 0.9 0.7
v -1 0.1 0.7
v -1 0.2 0.7
v -1 0.7 0.7
v -1 0.8 0.7
v -1 0.9 0.7
v -0.8 0.1 0.7
v -0.8 0.2 0.7
v -0.8 0.7 0.7
v -0.8 0.8 0.7
v -0.8 0.9 0.7
v -0.7 0.1 0.7
v -0.7 0.2 0.7
v -0.7 0.7 0.7
v -0.7 0.8 0.7
v -0.7 0.9 0.7
v -1 0.9 0.6
v -1 1.1 0.6
v -1 1.2 0.6
v -0.8 0.9 0.6
v -0.8 1.1 0.6
v -0.8 1.2 0.6
v -1 0.9 0.4
v -1 1.1 0.4
v -1 1.2 0.4
v -0.8 0.9 0.4
v -0.8 1.1 0.4
v -0.8 1.2 0.4
v -1.1 0.1 0.3
v -1.1 0.2 0.3
v -1.1 0.7 0.3
v -1.1 0.8 0.3
v -1.1 0.9 0.3
v -1 0.1 0.3
v -1 0.2 0.3
v -1 0.7 0.3
v -1 0.8 0.3
v -1 0.9 0.3
v -0.8 0.1 0.3
v -0.8 0.2 0.3
v -0.8 0.7 0.3
v -0.8 0.8 0.3
v -0.8 0.9 0.3
v -0.7 0.1 0.3
v -0.7 0.2 0.3
v -0.7 0.7 0.3
v -0.7 0.8 0.3
v -0.7 0.9 0.3
v -1.1 0.1 0.7
v -1 0.1 0.7
v -0.8 0.1 0.7
v -0.7 0.1 0.7
v -1.1 0.1 0.6
v -1 0.1 0.6
v -0.8 0.1 0.6
v -0.7 0.1 0.6
v -1.1 0.1 0.4
v -1 0.1 0.4
v -0.8 0.1 0.4
v -0.7 0.1 0.4
v -1.1 0.1 0.3
v -1 0.1 0.3
v -0.8 0.1 0.3
v -0.7 0.1 0.3
v -1.1 0.9 0.7
v -1 0.9 0.7
v -0.8 0.9 0.7
v -0.7 0.9 0.7
v -1.1 0.9 0.6
v -1 0.9 0.6
v -0.8 0.9 0.6
v -0.7 0.9 0.6
v -1.1 0.9 0.4
v -1 0.9 0.4
v -0.8 0.9 0.4
v -0.7 0.9 0.4
v -1.1 0.9 0.3
v -1 0.9 0.3
v -0.8 0.9 0.3
v -0.7 0.9 0.3
v -1 1.2 0.6
v -0.8 1.2 0.6
v -1 1.2 0.4
v -0.8 1.2 0.4

# faces
f 5/4/1 2/4/1 1/4/1
f 6/3/1 3/3/1 2/3/1
f 6/4/1 2/4/1 5/4/1
f 7/4/1 4/4/1 3/4/1
f 7/3/1 3/3/1 6/3/1
f 8/4/1 4/4/1 7/4/1
f 9/3/1 6/3/1 5/3/1
f 10/4/1 7/4/1 6/4/1
f 10/3/1 6/3/1 9/3/1
f 11/3/1 8/3/1 7/3/1
f 11/4/1 7/4/1 10/4/1
f 12/3/1 8/3/1 11/3/1
f 13/2/1 10/2/1 9/2/1
f 14/3/1 11/3/1 10/3/1
f 14/2/1 10/2/1 13/2/1
f 15/2/1 12/2/1 11/2/1
f 15/3/1 11/3/1 14/3/1
f 16/2/1 12/2/1 15/2/1
f 17/5/1 14/5/1 13/5/1
f 18/6/1 15/6/1 14/6/1
f 18/5/1 14/5/1 17/5/1
f 19/5/1 16/5/1 15/5/1
f 19/6/1 15/6/1 18/6/1
f 20/5/1 16/5/1 19/5/1
f 23/6/1 22/6/1 21/6/1
f 24/6/1 22/6/1 23/6/1
f 25/1/1 24/1/1 23/1/1
f 26/1/1 24/1/1 25/1/1
f 27/6/2 28/6/2 29/6/2
f 29/6/2 28/6/2 30/6/2
f 29/1/2 30/1/2 31/1/2
f 31/1/2 30/1/2 32/1/2
f 33/4/2 34/4/2 37/4/2
f 34/3/2 35/3/2 38/3/2
f 37/4/2 34/4/2 38/4/2
f 35/4/2 36/4/2 39/4/2
f 38/3/2 35/3/2 39/3/2
f 39/4/2 36/4/2 40/4/2
f 37/3/2 38/3/2 41/3/2
f 38/4/2 39/4/2 42/4/2
f 41/3/2 38/3/2 42/3/2
f 39/3/2 40/3/2 43/3/2
f 42/4/2 39/4/2 43/4/2
f 43/3/2 40/3/2 44/3/2
f 41/2/2 42/2/2 45/2/2
f 42/3/2 43/3/2 46/3/2
f 45/2/2 42/2/2 46/2/2
f 43/2/2 44/2/2 47/2/2
f 46/3/2 43/3/2 47/3/2
f 47/2/2 44/2/2 48/2/2
f 45/5/2 46/5/2 49/5/2
f 46/6/2 47/6/2 50/6/2
f 49/5/2 46/5/2 50/5/2
f 47/5/2 48/5/2 51/5/2
f 50/6/2 47/6/2 51/6/2
f 51/5/2 48/5/2 52/5/2
f 58/4/3 54/4/3 53/4/3
f 59/3/3 55/3/3 54/3/3
f 59/4/3 54/4/3 58/4/3
f 60/2/3 56/2/3 55/2/3
f 60/3/3 55/3/3 59/3/3
f 61/5/3 57/5/3 56/5/3
f 61/2/3 56/2/3 60/2/3
f 62/5/3 57/5/3 61/5/3
f 63/3/3 59/3/3 58/3/3
f 64/4/3 60/4/3 59/4/3
f 64/3/3 59/3/3 63/3/3
f 65/3/3 61/3/3 60/3/3
f 65/4/3 60/4/3 64/4/3
f 66/6/3 62/6/3 61/6/3
f 66/3/3 61/3/3 65/3/3
f 67/6/3 62/6/3 66/6/3
f 68/4/3 64/4/3 63/4/3
f 69/3/3 65/3/3 64/3/3
f 69/4/3 64/4/3 68/4/3
f 70/2/3 66/2/3 65/2/3
f 70/3/3 65/3/3 69/3/3
f 71/5/3 67/5/3 66/5/3
f 71/2/3 66/2/3 70/2/3
f 72/5/3 67/5/3 71/5/3
f 76/6/3 74/6/3 73/6/3
f 77/1/3 75/1/3 74/1/3
f 77/6/3 74/6/3 76/6/3
f 78/1/3 75/1/3 77/1/3
f 79/6/4 80/6/4 82/6/4
f 80/1/4 81/1/4 83/1/4
f 82/6/4 80/6/4 83/6/4
f 83/1/4 81/1/4 84/1/4
f 85/4/4 86/4/4 90/4/4
f 86/3/4 87/3/4 91/3/4
f 90/4/4 86/4/4 91/4/4
f 87/2/4 88/2/4 92/2/4
f 91/3/4 87/3/4 92/3/4
f 88/5/4 89/5/4 93/5/4
f 92/2/4 88/2/4 93/2/4
f 93/5/4 89/5/4 94/5/4
f 90/3/4 91/3/4 95/3/4
f 91/4/4 92/4/4 96/4/4
f 95/3/4 91/3/4 96/3/4
f 92/3/4 93/3/4 97/3/4
f 96/4/4 92/4/4 97/4/4
f 93/6/4 94/6/4 98/6/4
f 97/3/4 93/3/4 98/3/4
f 98/6/4 94/6/4 99/6/4
f 95/4/4 96/4/4 100/4/4
f 96/3/4 97/3/4 101/3/4
f 100/4/4 96/4/4 101/4/4
f 97/2/4 98/2/4 102/2/4
f 101/3/4 97/3/4 102/3/4
f 98/5/4 99/5/4 103/5/4
f 102/2/4 98/2/4 103/2/4
f 103/5/4 99/5/4 104/5/4
f 109/4/5 106/4/5 105/4/5
f 110/3/5 107/3/5 106/3/5
f 110/4/5 106/4/5 109/4/5
f 111/4/5 108/4/5 107/4/5
f 111/3/5 107/3/5 110/3/5
f 112/4/5 108/4/5 111/4/5
f 113/3/5 110/3/5 109/3/5
f 113/3/5 111/3/5 110/3/5
f 113/3/5 112/3/5 111/3/5
f 114/3/5 112/3/5 113/3/5
f 115/3/5 112/3/5 114/3/5
f 116/3/5 112/3/5 115/3/5
f 117/4/5 114/4/5 113/4/5
f 118/3/5 115/3/5 114/3/5
f 118/4/5 114/4/5 117/4/5
f 119/4/5 116/4/5 115/4/5
f 119/3/5 115/3/5 118/3/5
f 120/4/5 116/4/5 119/4/5
f 121/5/6 122/5/6 125/5/6
f 122/6/6 123/6/6 126/6/6
f 125/5/6 122/5/6 126/5/6
f 123/5/6 124/5/6 127/5/6
f 126/6/6 123/6/6 127/6/6
f 127/5/6 124/5/6 128/5/6
f 125/6/6 126/6/6 129/6/6
f 129/6/6 126/6/6 130/6/6
f 127/6/6 128/6/6 131/6/6
f 131/6/6 128/6/6 132/6/6
f 129/5/6 130/5/6 133/5/6
f 130/6/6 131/6/6 134/6/6
f 133/5/6 130/5/6 134/5/6
f 131/5/6 132/5/6 135/5/6
f 134/6/6 131/6/6 135/6/6
f 135/5/6 132/5/6 136/5/6
f 137/1/6 138/1/6 139/1/6
f 139/1/6 138/1/6 140/1/6
