# MagicaVoxel @ Ephtracy

# group
o 

# material
mtllib Voxel RPG Weapons-5.mtl
usemtl palette

# normals
vn -1 0 0
vn 1 0 0
vn 0 0 1
vn 0 0 -1
vn 0 -1 0
vn 0 1 0

# texcoords
vt 0.0136719 0.5
vt 0.0566406 0.5
vt 0.244141 0.5
vt 0.330078 0.5
vt 0.416016 0.5
vt 0.423828 0.5

# verts
v 1.4 0.1 0.6
v 1.4 0.1 0.5
v 1.4 0.1 0.4
v 1.4 0.2 0.5
v 1.4 0.2 0.4
v 1.4 0.3 0.5
v 1.4 0.3 0.4
v 1.4 0.7 0.5
v 1.4 0.7 0.4
v 1.4 0.8 0.5
v 1.4 0.8 0.4
v 1.4 0.9 0.6
v 1.4 0.9 0.5
v 1.4 0.9 0.4
v 2.4 0.1 0.6
v 2.4 0.1 0.5
v 2.4 0.1 0.4
v 2.4 0.2 0.5
v 2.4 0.2 0.4
v 2.4 0.3 0.5
v 2.4 0.3 0.4
v 2.4 0.7 0.5
v 2.4 0.7 0.4
v 2.4 0.8 0.5
v 2.4 0.8 0.4
v 2.4 0.9 0.6
v 2.4 0.9 0.5
v 2.4 0.9 0.4
v 1.4 0.1 0.6
v 1.4 0.9 0.6
v 1.5 0.2 0.6
v 1.5 0.3 0.6
v 1.5 0.4 0.6
v 1.5 0.5 0.6
v 1.5 0.6 0.6
v 1.5 0.7 0.6
v 1.5 0.8 0.6
v 1.6 0.2 0.6
v 1.6 0.3 0.6
v 1.6 0.4 0.6
v 1.6 0.5 0.6
v 1.6 0.6 0.6
v 1.6 0.7 0.6
v 1.6 0.8 0.6
v 1.7 0.2 0.6
v 1.7 0.3 0.6
v 1.7 0.4 0.6
v 1.7 0.5 0.6
v 1.7 0.6 0.6
v 1.7 0.7 0.6
v 1.7 0.8 0.6
v 1.8 0.2 0.6
v 1.8 0.3 0.6
v 1.8 0.4 0.6
v 1.8 0.5 0.6
v 1.8 0.6 0.6
v 1.8 0.7 0.6
v 1.8 0.8 0.6
v 1.8 0.9 0.6
v 1.9 0.1 0.6
v 1.9 0.2 0.6
v 1.9 0.3 0.6
v 1.9 0.4 0.6
v 1.9 0.5 0.6
v 1.9 0.6 0.6
v 1.9 0.7 0.6
v 1.9 0.8 0.6
v 1.9 0.9 0.6
v 2 0.1 0.6
v 2 0.2 0.6
v 2 0.3 0.6
v 2 0.4 0.6
v 2 0.5 0.6
v 2 0.6 0.6
v 2 0.7 0.6
v 2 0.8 0.6
v 2.1 0.2 0.6
v 2.1 0.3 0.6
v 2.1 0.4 0.6
v 2.1 0.5 0.6
v 2.1 0.6 0.6
v 2.1 0.7 0.6
v 2.1 0.8 0.6
v 2.2 0.2 0.6
v 2.2 0.3 0.6
v 2.2 0.4 0.6
v 2.2 0.5 0.6
v 2.2 0.6 0.6
v 2.2 0.7 0.6
v 2.2 0.8 0.6
v 2.3 0.2 0.6
v 2.3 0.3 0.6
v 2.3 0.4 0.6
v 2.3 0.5 0.6
v 2.3 0.6 0.6
v 2.3 0.7 0.6
v 2.3 0.8 0.6
v 2.4 0.1 0.6
v 2.4 0.9 0.6
v 1.4 0.1 0.4
v 1.4 0.2 0.4
v 1.4 0.3 0.4
v 1.4 0.7 0.4
v 1.4 0.8 0.4
v 1.4 0.9 0.4
v 1.5 0.1 0.4
v 1.5 0.2 0.4
v 1.5 0.8 0.4
v 1.5 0.9 0.4
v 1.6 0.2 0.4
v 1.6 0.3 0.4
v 1.6 0.7 0.4
v 1.6 0.8 0.4
v 1.7 0.1 0.4
v 1.7 0.9 0.4
v 1.8 0.1 0.4
v 1.8 0.9 0.4
v 2 0.1 0.4
v 2 0.9 0.4
v 2.1 0.1 0.4
v 2.1 0.9 0.4
v 2.2 0.2 0.4
v 2.2 0.3 0.4
v 2.2 0.7 0.4
v 2.2 0.8 0.4
v 2.3 0.1 0.4
v 2.3 0.2 0.4
v 2.3 0.8 0.4
v 2.3 0.9 0.4
v 2.4 0.1 0.4
v 2.4 0.2 0.4
v 2.4 0.3 0.4
v 2.4 0.7 0.4
v 2.4 0.8 0.4
v 2.4 0.9 0.4
v 1.4 0.1 0.6
v 1.9 0.1 0.6
v 2 0.1 0.6
v 2.4 0.1 0.6
v 1.4 0.1 0.5
v 1.5 0.1 0.5
v 1.7 0.1 0.5
v 1.8 0.1 0.5
v 1.9 0.1 0.5
v 2 0.1 0.5
v 2.1 0.1 0.5
v 2.3 0.1 0.5
v 2.4 0.1 0.5
v 1.4 0.1 0.4
v 1.5 0.1 0.4
v 1.7 0.1 0.4
v 1.8 0.1 0.4
v 2 0.1 0.4
v 2.1 0.1 0.4
v 2.3 0.1 0.4
v 2.4 0.1 0.4
v 1.4 0.9 0.6
v 1.8 0.9 0.6
v 1.9 0.9 0.6
v 2.4 0.9 0.6
v 1.4 0.9 0.5
v 1.5 0.9 0.5
v 1.7 0.9 0.5
v 1.8 0.9 0.5
v 1.9 0.9 0.5
v 2 0.9 0.5
v 2.1 0.9 0.5
v 2.3 0.9 0.5
v 2.4 0.9 0.5
v 1.4 0.9 0.4
v 1.5 0.9 0.4
v 1.7 0.9 0.4
v 1.8 0.9 0.4
v 2 0.9 0.4
v 2.1 0.9 0.4
v 2.3 0.9 0.4
v 2.4 0.9 0.4

# faces
f 4/5/1 2/5/1 1/5/1
f 4/1/1 3/1/1 2/1/1
f 5/1/1 3/1/1 4/1/1
f 6/5/1 4/5/1 1/5/1
f 6/3/1 5/3/1 4/3/1
f 7/3/1 5/3/1 6/3/1
f 8/5/1 6/5/1 1/5/1
f 8/2/1 7/2/1 6/2/1
f 9/2/1 7/2/1 8/2/1
f 10/5/1 8/5/1 1/5/1
f 10/3/1 9/3/1 8/3/1
f 11/3/1 9/3/1 10/3/1
f 12/5/1 10/5/1 1/5/1
f 13/1/1 11/1/1 10/1/1
f 13/5/1 10/5/1 12/5/1
f 14/1/1 11/1/1 13/1/1
f 15/5/2 16/5/2 18/5/2
f 16/1/2 17/1/2 18/1/2
f 18/1/2 17/1/2 19/1/2
f 15/5/2 18/5/2 20/5/2
f 18/3/2 19/3/2 20/3/2
f 20/3/2 19/3/2 21/3/2
f 15/5/2 20/5/2 22/5/2
f 20/2/2 21/2/2 22/2/2
f 22/2/2 21/2/2 23/2/2
f 15/5/2 22/5/2 24/5/2
f 22/3/2 23/3/2 24/3/2
f 24/3/2 23/3/2 25/3/2
f 15/5/2 24/5/2 26/5/2
f 24/1/2 25/1/2 27/1/2
f 26/5/2 24/5/2 27/5/2
f 27/1/2 25/1/2 28/1/2
f 31/5/3 30/5/3 29/5/3
f 32/5/3 30/5/3 31/5/3
f 33/5/3 30/5/3 32/5/3
f 34/5/3 30/5/3 33/5/3
f 35/5/3 30/5/3 34/5/3
f 36/5/3 30/5/3 35/5/3
f 37/5/3 30/5/3 36/5/3
f 38/5/3 31/5/3 29/5/3
f 38/6/3 32/6/3 31/6/3
f 39/3/3 33/3/3 32/3/3
f 39/6/3 32/6/3 38/6/3
f 40/4/3 34/4/3 33/4/3
f 40/3/3 33/3/3 39/3/3
f 41/6/3 35/6/3 34/6/3
f 41/4/3 34/4/3 40/4/3
f 42/3/3 36/3/3 35/3/3
f 42/6/3 35/6/3 41/6/3
f 43/4/3 37/4/3 36/4/3
f 43/3/3 36/3/3 42/3/3
f 44/5/3 30/5/3 37/5/3
f 44/4/3 37/4/3 43/4/3
f 45/5/3 38/5/3 29/5/3
f 45/3/3 39/3/3 38/3/3
f 46/4/3 40/4/3 39/4/3
f 46/3/3 39/3/3 45/3/3
f 47/6/3 41/6/3 40/6/3
f 47/4/3 40/4/3 46/4/3
f 48/3/3 42/3/3 41/3/3
f 48/6/3 41/6/3 47/6/3
f 49/4/3 43/4/3 42/4/3
f 49/3/3 42/3/3 48/3/3
f 50/3/3 44/3/3 43/3/3
f 50/4/3 43/4/3 49/4/3
f 51/5/3 30/5/3 44/5/3
f 51/3/3 44/3/3 50/3/3
f 52/5/3 45/5/3 29/5/3
f 52/4/3 46/4/3 45/4/3
f 53/6/3 47/6/3 46/6/3
f 53/4/3 46/4/3 52/4/3
f 54/3/3 48/3/3 47/3/3
f 54/6/3 47/6/3 53/6/3
f 55/4/3 49/4/3 48/4/3
f 55/3/3 48/3/3 54/3/3
f 56/3/3 50/3/3 49/3/3
f 56/4/3 49/4/3 55/4/3
f 57/6/3 51/6/3 50/6/3
f 57/3/3 50/3/3 56/3/3
f 58/5/3 30/5/3 51/5/3
f 58/6/3 51/6/3 57/6/3
f 59/5/3 30/5/3 58/5/3
f 60/5/3 52/5/3 29/5/3
f 61/6/3 53/6/3 52/6/3
f 61/5/3 52/5/3 60/5/3
f 62/5/3 54/5/3 53/5/3
f 62/6/3 53/6/3 61/6/3
f 63/6/3 55/6/3 54/6/3
f 63/5/3 54/5/3 62/5/3
f 64/5/3 56/5/3 55/5/3
f 64/6/3 55/6/3 63/6/3
f 65/6/3 57/6/3 56/6/3
f 65/5/3 56/5/3 64/5/3
f 66/5/3 58/5/3 57/5/3
f 66/6/3 57/6/3 65/6/3
f 67/6/3 59/6/3 58/6/3
f 67/5/3 58/5/3 66/5/3
f 68/6/3 59/6/3 67/6/3
f 69/6/3 61/6/3 60/6/3
f 70/5/3 62/5/3 61/5/3
f 70/6/3 61/6/3 69/6/3
f 71/6/3 63/6/3 62/6/3
f 71/5/3 62/5/3 70/5/3
f 72/5/3 64/5/3 63/5/3
f 72/6/3 63/6/3 71/6/3
f 73/6/3 65/6/3 64/6/3
f 73/5/3 64/5/3 72/5/3
f 74/5/3 66/5/3 65/5/3
f 74/6/3 65/6/3 73/6/3
f 75/6/3 67/6/3 66/6/3
f 75/5/3 66/5/3 74/5/3
f 76/5/3 68/5/3 67/5/3
f 76/6/3 67/6/3 75/6/3
f 77/6/3 71/6/3 70/6/3
f 77/5/3 70/5/3 69/5/3
f 78/4/3 72/4/3 71/4/3
f 78/6/3 71/6/3 77/6/3
f 79/3/3 73/3/3 72/3/3
f 79/4/3 72/4/3 78/4/3
f 80/6/3 74/6/3 73/6/3
f 80/3/3 73/3/3 79/3/3
f 81/3/3 75/3/3 74/3/3
f 81/6/3 74/6/3 80/6/3
f 82/4/3 76/4/3 75/4/3
f 82/3/3 75/3/3 81/3/3
f 83/5/3 68/5/3 76/5/3
f 83/4/3 76/4/3 82/4/3
f 84/5/3 77/5/3 69/5/3
f 84/4/3 78/4/3 77/4/3
f 85/3/3 79/3/3 78/3/3
f 85/4/3 78/4/3 84/4/3
f 86/4/3 80/4/3 79/4/3
f 86/3/3 79/3/3 85/3/3
f 87/3/3 81/3/3 80/3/3
f 87/4/3 80/4/3 86/4/3
f 88/6/3 82/6/3 81/6/3
f 88/3/3 81/3/3 87/3/3
f 89/3/3 83/3/3 82/3/3
f 89/6/3 82/6/3 88/6/3
f 90/5/3 68/5/3 83/5/3
f 90/3/3 83/3/3 89/3/3
f 91/5/3 84/5/3 69/5/3
f 91/3/3 85/3/3 84/3/3
f 92/6/3 86/6/3 85/6/3
f 92/3/3 85/3/3 91/3/3
f 93/3/3 87/3/3 86/3/3
f 93/6/3 86/6/3 92/6/3
f 94/4/3 88/4/3 87/4/3
f 94/3/3 87/3/3 93/3/3
f 95/3/3 89/3/3 88/3/3
f 95/4/3 88/4/3 94/4/3
f 96/6/3 90/6/3 89/6/3
f 96/3/3 89/3/3 95/3/3
f 97/5/3 68/5/3 90/5/3
f 97/6/3 90/6/3 96/6/3
f 98/5/3 92/5/3 91/5/3
f 98/5/3 91/5/3 69/5/3
f 98/5/3 97/5/3 96/5/3
f 98/5/3 95/5/3 94/5/3
f 98/5/3 96/5/3 95/5/3
f 98/5/3 93/5/3 92/5/3
f 98/5/3 94/5/3 93/5/3
f 99/5/3 68/5/3 97/5/3
f 99/5/3 97/5/3 98/5/3
f 100/1/4 101/1/4 106/1/4
f 101/3/4 102/3/4 107/3/4
f 106/1/4 101/1/4 107/1/4
f 104/1/4 105/1/4 108/1/4
f 103/3/4 104/3/4 108/3/4
f 108/1/4 105/1/4 109/1/4
f 107/3/4 102/3/4 110/3/4
f 106/2/4 107/2/4 110/2/4
f 102/2/4 103/2/4 111/2/4
f 110/3/4 102/3/4 111/3/4
f 103/3/4 108/3/4 112/3/4
f 111/2/4 103/2/4 112/2/4
f 108/2/4 109/2/4 113/2/4
f 112/3/4 108/3/4 113/3/4
f 106/2/4 110/2/4 114/2/4
f 111/2/4 112/2/4 114/2/4
f 112/2/4 113/2/4 114/2/4
f 110/2/4 111/2/4 114/2/4
f 113/2/4 109/2/4 115/2/4
f 114/2/4 113/2/4 115/2/4
f 114/1/4 115/1/4 116/1/4
f 116/1/4 115/1/4 117/1/4
f 116/2/4 117/2/4 118/2/4
f 118/2/4 117/2/4 119/2/4
f 118/1/4 119/1/4 120/1/4
f 120/1/4 119/1/4 121/1/4
f 120/2/4 121/2/4 122/2/4
f 122/2/4 121/2/4 123/2/4
f 123/2/4 121/2/4 124/2/4
f 124/2/4 121/2/4 125/2/4
f 120/2/4 122/2/4 126/2/4
f 122/3/4 123/3/4 127/3/4
f 126/2/4 122/2/4 127/2/4
f 125/2/4 121/2/4 128/2/4
f 124/3/4 125/3/4 128/3/4
f 128/2/4 121/2/4 129/2/4
f 126/1/4 127/1/4 130/1/4
f 127/3/4 123/3/4 131/3/4
f 130/1/4 127/1/4 131/1/4
f 123/2/4 124/2/4 132/2/4
f 131/3/4 123/3/4 132/3/4
f 124/3/4 128/3/4 133/3/4
f 132/2/4 124/2/4 133/2/4
f 128/1/4 129/1/4 134/1/4
f 133/3/4 128/3/4 134/3/4
f 134/1/4 129/1/4 135/1/4
f 140/5/5 137/5/5 136/5/5
f 141/5/5 137/5/5 140/5/5
f 142/5/5 137/5/5 141/5/5
f 143/5/5 137/5/5 142/5/5
f 144/6/5 138/6/5 137/6/5
f 144/5/5 137/5/5 143/5/5
f 145/5/5 139/5/5 138/5/5
f 145/6/5 138/6/5 144/6/5
f 146/5/5 139/5/5 145/5/5
f 147/5/5 139/5/5 146/5/5
f 148/5/5 139/5/5 147/5/5
f 149/1/5 141/1/5 140/1/5
f 150/2/5 142/2/5 141/2/5
f 150/1/5 141/1/5 149/1/5
f 151/1/5 143/1/5 142/1/5
f 151/2/5 142/2/5 150/2/5
f 152/2/5 144/2/5 143/2/5
f 152/1/5 143/1/5 151/1/5
f 152/2/5 145/2/5 144/2/5
f 153/1/5 146/1/5 145/1/5
f 153/2/5 145/2/5 152/2/5
f 154/2/5 147/2/5 146/2/5
f 154/1/5 146/1/5 153/1/5
f 155/1/5 148/1/5 147/1/5
f 155/2/5 147/2/5 154/2/5
f 156/1/5 148/1/5 155/1/5
f 157/5/6 158/5/6 161/5/6
f 161/5/6 158/5/6 162/5/6
f 162/5/6 158/5/6 163/5/6
f 158/6/6 159/6/6 164/6/6
f 163/5/6 158/5/6 164/5/6
f 159/5/6 160/5/6 165/5/6
f 164/6/6 159/6/6 165/6/6
f 165/5/6 160/5/6 166/5/6
f 166/5/6 160/5/6 167/5/6
f 167/5/6 160/5/6 168/5/6
f 168/5/6 160/5/6 169/5/6
f 161/1/6 162/1/6 170/1/6
f 162/2/6 163/2/6 171/2/6
f 170/1/6 162/1/6 171/1/6
f 163/1/6 164/1/6 172/1/6
f 171/2/6 163/2/6 172/2/6
f 164/2/6 165/2/6 173/2/6
f 172/1/6 164/1/6 173/1/6
f 165/2/6 166/2/6 173/2/6
f 166/1/6 167/1/6 174/1/6
f 173/2/6 166/2/6 174/2/6
f 167/2/6 168/2/6 175/2/6
f 174/1/6 167/1/6 175/1/6
f 168/1/6 169/1/6 176/1/6
f 175/2/6 168/2/6 176/2/6
f 176/1/6 169/1/6 177/1/6
