# MagicaVoxel @ Ephtracy

# group
o 

# material
mtllib Voxel RPG Weapons-27.mtl
usemtl palette

# normals
vn -1 0 0
vn 1 0 0
vn 0 0 1
vn 0 0 -1
vn 0 -1 0
vn 0 1 0

# texcoords
vt 0.220703 0.5
vt 0.306641 0.5
vt 0.310547 0.5

# verts
v -2.4 1 0.6
v -2.4 1 0.3
v -2.4 1.1 0.6
v -2.4 1.1 0.3
v -2.4 1.2 0.6
v -2.4 1.2 0.3
v -2.4 1.3 0.6
v -2.4 1.3 0.3
v -2.4 1.4 0.6
v -2.4 1.4 0.3
v -2.3 0.1 0.5
v -2.3 0.1 0.4
v -2.3 0.8 0.5
v -2.3 0.8 0.4
v -2.3 1 0.5
v -2.3 1 0.4
v -2.2 0.1 0.5
v -2.2 0.1 0.4
v -2.2 0.8 0.5
v -2.2 0.8 0.4
v -2.2 1 0.5
v -2.2 1 0.4
v -2.1 1 0.6
v -2.1 1 0.3
v -2.1 1.1 0.6
v -2.1 1.1 0.3
v -2.1 1.2 0.6
v -2.1 1.2 0.3
v -2.1 1.3 0.6
v -2.1 1.3 0.3
v -2.1 1.4 0.6
v -2.1 1.4 0.3
v -2.4 1 0.6
v -2.4 1.1 0.6
v -2.4 1.2 0.6
v -2.4 1.3 0.6
v -2.4 1.4 0.6
v -2.1 1 0.6
v -2.1 1.1 0.6
v -2.1 1.2 0.6
v -2.1 1.3 0.6
v -2.1 1.4 0.6
v -2.3 0.1 0.5
v -2.3 0.8 0.5
v -2.3 1 0.5
v -2.2 0.1 0.5
v -2.2 0.8 0.5
v -2.2 1 0.5
v -2.3 0.1 0.4
v -2.3 0.8 0.4
v -2.3 1 0.4
v -2.2 0.1 0.4
v -2.2 0.8 0.4
v -2.2 1 0.4
v -2.4 1 0.3
v -2.4 1.1 0.3
v -2.4 1.2 0.3
v -2.4 1.3 0.3
v -2.4 1.4 0.3
v -2.1 1 0.3
v -2.1 1.1 0.3
v -2.1 1.2 0.3
v -2.1 1.3 0.3
v -2.1 1.4 0.3
v -2.3 0.1 0.5
v -2.2 0.1 0.5
v -2.3 0.1 0.4
v -2.2 0.1 0.4
v -2.4 1 0.6
v -2.1 1 0.6
v -2.3 1 0.5
v -2.2 1 0.5
v -2.3 1 0.4
v -2.2 1 0.4
v -2.4 1 0.3
v -2.1 1 0.3
v -2.4 1.4 0.6
v -2.1 1.4 0.6
v -2.4 1.4 0.3
v -2.1 1.4 0.3

# faces
f 3/1/1 2/1/1 1/1/1
f 4/1/1 2/1/1 3/1/1
f 5/3/1 4/3/1 3/3/1
f 6/3/1 4/3/1 5/3/1
f 7/1/1 6/1/1 5/1/1
f 8/1/1 6/1/1 7/1/1
f 9/3/1 8/3/1 7/3/1
f 10/3/1 8/3/1 9/3/1
f 13/2/1 12/2/1 11/2/1
f 14/2/1 12/2/1 13/2/1
f 15/1/1 14/1/1 13/1/1
f 16/1/1 14/1/1 15/1/1
f 17/2/2 18/2/2 19/2/2
f 19/2/2 18/2/2 20/2/2
f 19/1/2 20/1/2 21/1/2
f 21/1/2 20/1/2 22/1/2
f 23/1/2 24/1/2 25/1/2
f 25/1/2 24/1/2 26/1/2
f 25/3/2 26/3/2 27/3/2
f 27/3/2 26/3/2 28/3/2
f 27/1/2 28/1/2 29/1/2
f 29/1/2 28/1/2 30/1/2
f 29/3/2 30/3/2 31/3/2
f 31/3/2 30/3/2 32/3/2
f 38/1/3 34/1/3 33/1/3
f 39/3/3 35/3/3 34/3/3
f 39/1/3 34/1/3 38/1/3
f 40/1/3 36/1/3 35/1/3
f 40/3/3 35/3/3 39/3/3
f 41/3/3 37/3/3 36/3/3
f 41/1/3 36/1/3 40/1/3
f 42/3/3 37/3/3 41/3/3
f 46/2/3 44/2/3 43/2/3
f 47/1/3 45/1/3 44/1/3
f 47/2/3 44/2/3 46/2/3
f 48/1/3 45/1/3 47/1/3
f 49/2/4 50/2/4 52/2/4
f 50/1/4 51/1/4 53/1/4
f 52/2/4 50/2/4 53/2/4
f 53/1/4 51/1/4 54/1/4
f 55/1/4 56/1/4 60/1/4
f 56/3/4 57/3/4 61/3/4
f 60/1/4 56/1/4 61/1/4
f 57/1/4 58/1/4 62/1/4
f 61/3/4 57/3/4 62/3/4
f 58/3/4 59/3/4 63/3/4
f 62/1/4 58/1/4 63/1/4
f 63/3/4 59/3/4 64/3/4
f 67/2/5 66/2/5 65/2/5
f 68/2/5 66/2/5 67/2/5
f 71/1/5 70/1/5 69/1/5
f 72/1/5 70/1/5 71/1/5
f 73/1/5 71/1/5 69/1/5
f 74/1/5 70/1/5 72/1/5
f 75/1/5 73/1/5 69/1/5
f 75/1/5 74/1/5 73/1/5
f 76/1/5 70/1/5 74/1/5
f 76/1/5 74/1/5 75/1/5
f 77/3/6 78/3/6 79/3/6
f 79/3/6 78/3/6 80/3/6
